<svg width="38" height="38" viewBox="0 0 38 38" fill="none" xmlns="http://www.w3.org/2000/svg">
<path d="M4.10447 23.0243C4.10447 24.4753 4.42294 25.5893 4.8392 26.2632C5.38496 27.1459 6.19898 27.5199 7.02886 27.5199C8.09925 27.5199 9.07845 27.2543 10.9655 24.6444C12.4773 22.5525 14.2586 19.6162 15.4572 17.7754L17.4869 14.6568C18.8969 12.4909 20.5289 10.0832 22.4001 8.4512C23.9277 7.11917 25.5756 6.37915 27.234 6.37915C30.0184 6.37915 32.6705 7.99266 34.7003 11.0188C36.9217 14.333 38 18.5075 38 22.8155C38 25.3765 37.4952 27.2583 36.6363 28.7449C35.8064 30.1827 34.1889 31.6191 31.468 31.6191V27.5199C33.7977 27.5199 34.3792 25.3791 34.3792 22.9292C34.3792 19.4379 33.5652 15.5633 31.7719 12.7949C30.4994 10.8312 28.8502 9.63127 27.0358 9.63127C25.0734 9.63127 23.4943 11.1113 21.7196 13.7503C20.776 15.1523 19.8074 16.861 18.7199 18.789L17.5226 20.91C15.1175 25.1743 14.5083 26.1456 13.3058 27.7485C11.1981 30.5553 9.39825 31.6191 7.02886 31.6191C4.21811 31.6191 2.44074 30.402 1.33996 28.5678C0.441369 27.0733 0 25.1122 0 22.8776L4.10447 23.0243Z" fill="#0081FB"></path>
<path d="M3.23535 11.3082C5.11712 8.4076 7.83272 6.37915 10.9474 6.37915C12.7512 6.37915 14.5444 6.91302 16.4169 8.44195C18.4652 10.1136 20.6483 12.8662 23.3718 17.4028L24.3484 19.0308C26.7059 22.9582 28.0471 24.9787 28.8321 25.9315C29.8417 27.1552 30.5487 27.5199 31.4671 27.5199C33.7968 27.5199 34.3783 25.3791 34.3783 22.9292L37.9991 22.8155C37.9991 25.3765 37.4943 27.2583 36.6353 28.7449C35.8055 30.1827 34.188 31.6191 31.4671 31.6191C29.7756 31.6191 28.2771 31.2517 26.62 29.6884C25.3461 28.4886 23.8568 26.357 22.7111 24.4409L19.303 18.748C17.5931 15.891 16.0245 13.7608 15.1166 12.7962C14.1401 11.7588 12.8847 10.5061 10.8813 10.5061C9.2599 10.5061 7.88294 11.6439 6.73062 13.3842L3.23535 11.3082Z" fill="url(#paint0_linear_58_2599)"></path>
<path d="M10.8823 10.5061C9.26082 10.5061 7.88385 11.6439 6.73153 13.3842C5.10217 15.8435 4.10447 19.5066 4.10447 23.0243C4.10447 24.4753 4.42294 25.5893 4.8392 26.2632L1.33996 28.5678C0.441369 27.0733 0 25.1122 0 22.8776C0 18.8141 1.11532 14.5788 3.23626 11.3082C5.11803 8.4076 7.83364 6.37915 10.9483 6.37915L10.8823 10.5061Z" fill="url(#paint1_linear_58_2599)"></path>
<defs>
<linearGradient id="paint0_linear_58_2599" x1="8.06001" y1="21.8403" x2="34.225" y2="23.1617" gradientUnits="userSpaceOnUse">
<stop stop-color="#0064E1"></stop>
<stop offset="0.4" stop-color="#0064E1"></stop>
<stop offset="0.83" stop-color="#0073EE"></stop>
<stop offset="1" stop-color="#0082FB"></stop>
</linearGradient>
<linearGradient id="paint1_linear_58_2599" x1="5.94658" y1="24.7475" x2="5.94658" y2="15.1008" gradientUnits="userSpaceOnUse">
<stop stop-color="#0082FB"></stop>
<stop offset="1" stop-color="#0064E0"></stop>
</linearGradient>
</defs>
</svg>