<svg width="156" height="28" viewBox="0 0 156 28" fill="none" xmlns="http://www.w3.org/2000/svg">
<path d="M8.01656 0C3.60424 0 0.0273438 3.58172 0.0273438 8V20C0.0273438 24.4183 3.60424 28 8.01656 28H20.0004C24.4127 28 27.9896 24.4183 27.9896 20V8C27.9896 3.58172 24.4127 0 20.0004 0H8.01656Z" fill="#5433FB"></path>
<path fill-rule="evenodd" clip-rule="evenodd" d="M19.0286 19.1098C21.6845 18.2653 22.5203 15.965 22.3845 13.5739C22.3628 13.116 22.3044 12.6677 22.212 12.2319C22.2092 12.2177 22.2064 12.2035 22.2035 12.1893C21.7542 10.0141 20.4337 8.57704 20.2853 8.421C18.7497 6.69064 16.5081 5.6001 14.0116 5.6001C11.5154 5.6001 9.27411 6.69034 7.7385 8.42026C7.59363 8.57247 6.26967 10.0106 5.81966 12.1893C5.81364 12.2181 5.80774 12.247 5.80197 12.276C5.74821 12.5365 5.70656 12.8015 5.67763 13.0704C5.39368 15.5756 6.13247 18.209 8.96561 19.1098C11.4422 19.8971 12.8711 18.5386 12.7758 17.5868C12.7261 17.0902 12.4429 16.8527 12.0159 16.4945C11.6246 16.1664 11.1127 15.737 10.5488 14.9141C9.25657 13.0281 11.3389 11.3288 13.9861 11.3111L14.0116 11.311L14.0369 11.3111C16.6839 11.3288 18.7376 13.0281 17.4453 14.9141C16.8815 15.737 16.3695 16.1664 15.9783 16.4945C15.5512 16.8527 15.2681 17.0902 15.2184 17.5868C15.1231 18.5386 16.5519 19.8971 19.0286 19.1098ZM15.474 20.4036C16.6597 21.149 18.0949 21.1591 19.2527 20.5565C17.8173 21.7103 15.9972 22.4001 14.017 22.4001C12.0302 22.4001 10.2045 21.7056 8.76685 20.5448C9.93325 21.1743 11.3931 21.1748 12.596 20.4186C13.2504 20.0072 13.738 19.4289 14.0385 18.7728C14.3394 19.4227 14.8246 19.9953 15.474 20.4036Z" fill="white"></path>
<path d="M45.0538 13.562C44.7558 14.1134 44.291 14.5568 43.6563 14.894C43.0215 15.2312 42.2217 15.3998 41.2569 15.3998H39.2869V19.9183H36.9297V8.1499H41.2569C42.1661 8.1499 42.9407 8.3067 43.5805 8.62199C44.2203 8.93727 44.7002 9.3689 45.0201 9.92022C45.34 10.4716 45.5 11.0954 45.5 11.7917C45.5 12.4206 45.3518 13.0107 45.0538 13.562ZM42.6039 13.0478C42.9188 12.7494 43.0754 12.3312 43.0754 11.7917C43.0754 10.6452 42.4355 10.072 41.1559 10.072H39.2869V13.4946H41.1559C41.8075 13.4946 42.2891 13.3462 42.6039 13.0478Z" fill="white"></path>
<path d="M48.3653 19.4718C47.6464 19.0722 47.0823 18.5074 46.6732 17.7773C46.264 17.0473 46.0586 16.2043 46.0586 15.2483C46.0586 14.2923 46.2691 13.4493 46.69 12.7193C47.1109 11.9892 47.6868 11.4244 48.4158 11.0248C49.1449 10.6252 49.9598 10.4263 50.8573 10.4263C51.7547 10.4263 52.5697 10.6252 53.2987 11.0248C54.0278 11.4244 54.6036 11.9892 55.0246 12.7193C55.4455 13.4493 55.656 14.2923 55.656 15.2483C55.656 16.2043 55.4388 17.0473 55.0077 17.7773C54.575 18.5074 53.9924 19.0722 53.2566 19.4718C52.5208 19.8714 51.6992 20.0703 50.7899 20.0703C49.8807 20.0703 49.0843 19.8714 48.3653 19.4718ZM51.9938 17.7015C52.3693 17.4941 52.6707 17.1822 52.8946 16.7657C53.1186 16.3493 53.2314 15.8435 53.2314 15.2483C53.2314 14.3598 52.999 13.6769 52.5326 13.1998C52.0662 12.7226 51.4971 12.4832 50.8236 12.4832C50.1501 12.4832 49.586 12.7226 49.1314 13.1998C48.6768 13.6769 48.4495 14.3598 48.4495 15.2483C48.4495 16.1368 48.6718 16.8197 49.1146 17.2968C49.5574 17.7739 50.1164 18.0134 50.7899 18.0134C51.2159 18.0134 51.6183 17.9088 51.9938 17.7015Z" fill="white"></path>
<path d="M59.4471 7.44189V19.9185H57.0898V7.44189H59.4471Z" fill="white"></path>
<path d="M61.4898 12.7024C61.8653 11.9724 62.3772 11.4092 63.022 11.0164C63.6669 10.6235 64.3893 10.4263 65.1857 10.4263C65.8811 10.4263 66.4906 10.5662 67.0125 10.8478C67.5345 11.1293 67.9521 11.4834 68.2669 11.91V10.578H70.641V19.9186H68.2669V18.5529C67.9639 18.9913 67.5446 19.3538 67.0125 19.6404C66.4788 19.927 65.8642 20.0703 65.1688 20.0703C64.3825 20.0703 63.6669 19.868 63.022 19.4633C62.3772 19.0587 61.8653 18.4888 61.4898 17.752C61.1144 17.0152 60.9258 16.1705 60.9258 15.2146C60.9258 14.2586 61.1144 13.4324 61.4898 12.7024ZM67.9302 13.773C67.7062 13.3633 67.4032 13.048 67.021 12.8288C66.6387 12.6097 66.2296 12.5001 65.7918 12.5001C65.354 12.5001 64.9499 12.6063 64.5795 12.8204C64.2091 13.0345 63.9094 13.3465 63.6787 13.7562C63.448 14.1659 63.3335 14.6531 63.3335 15.2146C63.3335 15.776 63.448 16.2683 63.6787 16.6898C63.9094 17.1113 64.2125 17.4351 64.5879 17.6593C64.9634 17.8835 65.3658 17.9965 65.7918 17.9965C66.2178 17.9965 66.6387 17.8869 67.021 17.6677C67.4032 17.4485 67.7062 17.1333 67.9302 16.7236C68.1541 16.3139 68.2669 15.8215 68.2669 15.2483C68.2669 14.675 68.1541 14.1827 67.9302 13.773Z" fill="white"></path>
<path d="M76.1498 10.8644C76.638 10.5828 77.1971 10.4429 77.8251 10.4429V12.9213H77.2021C76.4613 12.9213 75.9022 13.095 75.5268 13.444C75.1513 13.793 74.9627 14.4 74.9627 15.2649V19.9183H72.6055V10.5778H74.9627V12.0277C75.2658 11.5337 75.6615 11.1459 76.1498 10.8644Z" fill="white"></path>
</svg>