<svg width="41" height="40" viewBox="0 0 41 40" fill="none" xmlns="http://www.w3.org/2000/svg">
<g clip-path="url(#clip0_623_18160)">
<path d="M34.7685 32.294C18.5766 39.9999 8.52765 33.5526 2.09503 29.6367C1.69698 29.3899 1.02043 29.6944 1.60743 30.3686C3.75046 32.967 10.7736 39.23 19.9409 39.23C29.1145 39.23 34.5719 34.2245 35.2546 33.3514C35.9327 32.4856 35.4537 32.008 34.7684 32.294H34.7685ZM39.316 29.7827C38.8812 29.2165 36.672 29.1109 35.2817 29.2817C33.8892 29.4476 31.7991 30.2986 31.9808 30.8096C32.074 31.001 32.2644 30.9151 33.221 30.8291C34.1801 30.7334 36.8672 30.3943 37.4272 31.1262C37.9897 31.8632 36.5701 35.374 36.3109 35.9403C36.0604 36.5065 36.4066 36.6525 36.8771 36.2754C37.3411 35.8984 38.1812 34.9222 38.745 33.5406C39.3049 32.1515 39.6463 30.2138 39.3158 29.7827H39.316Z" fill="#FF9900"></path>
<path fill-rule="evenodd" clip-rule="evenodd" d="M23.8811 16.57C23.8811 18.5919 23.9322 20.2781 22.9103 22.0737C22.0854 23.5337 20.7788 24.4315 19.3189 24.4315C17.3261 24.4315 16.1655 22.9132 16.1655 20.6723C16.1655 16.2487 20.129 15.4458 23.8811 15.4458V16.57ZM29.1148 29.2201C28.7717 29.5266 28.2753 29.5486 27.8885 29.3441C26.1659 27.9135 25.8592 27.2492 24.9103 25.8841C22.0635 28.7894 20.0489 29.658 16.3554 29.658C11.9902 29.658 8.58862 26.9644 8.58862 21.5701C8.58862 17.3584 10.8735 14.4896 14.1216 13.0882C16.9393 11.8471 20.8737 11.6281 23.8811 11.2852V10.6136C23.8811 9.37988 23.9759 7.92002 23.2534 6.85435C22.6182 5.89808 21.4066 5.50388 20.3407 5.50388C18.3627 5.50388 16.5962 6.51846 16.1655 8.62071C16.0778 9.088 15.7348 9.5479 15.2677 9.56975L10.231 9.02969C9.80769 8.9346 9.34056 8.59163 9.45734 7.94186C10.6179 1.8396 16.1289 0 21.0633 0C23.589 0 26.8883 0.671618 28.8811 2.58415C31.4068 4.94182 31.1658 8.08788 31.1658 11.5114V19.5992C31.1658 22.03 32.1732 23.0957 33.122 24.4097C33.4578 24.8768 33.5309 25.439 33.1074 25.7892C32.049 26.6724 30.1657 28.3149 29.1293 29.2347L29.1147 29.2201" fill="white"></path>
<path d="M34.7685 32.294C18.5766 39.9999 8.52765 33.5526 2.09503 29.6367C1.69698 29.3899 1.02043 29.6944 1.60743 30.3686C3.75046 32.967 10.7736 39.23 19.9409 39.23C29.1145 39.23 34.5719 34.2245 35.2546 33.3514C35.9327 32.4856 35.4537 32.008 34.7684 32.294H34.7685ZM39.316 29.7827C38.8812 29.2165 36.672 29.1109 35.2817 29.2817C33.8892 29.4476 31.7991 30.2986 31.9808 30.8096C32.074 31.001 32.2644 30.9151 33.221 30.8291C34.1801 30.7334 36.8672 30.3943 37.4272 31.1262C37.9897 31.8632 36.5701 35.374 36.3109 35.9403C36.0604 36.5065 36.4066 36.6525 36.8771 36.2754C37.3411 35.8984 38.1812 34.9222 38.745 33.5406C39.3049 32.1515 39.6463 30.2138 39.3158 29.7827H39.316Z" fill="#FF9900"></path>
<path fill-rule="evenodd" clip-rule="evenodd" d="M23.8811 16.57C23.8811 18.5919 23.9322 20.2781 22.9103 22.0737C22.0854 23.5337 20.7788 24.4315 19.3189 24.4315C17.3261 24.4315 16.1655 22.9132 16.1655 20.6723C16.1655 16.2487 20.129 15.4458 23.8811 15.4458V16.57ZM29.1148 29.2201C28.7717 29.5266 28.2753 29.5486 27.8885 29.3441C26.1659 27.9135 25.8592 27.2492 24.9103 25.8841C22.0635 28.7894 20.0489 29.658 16.3554 29.658C11.9902 29.658 8.58862 26.9644 8.58862 21.5701C8.58862 17.3584 10.8735 14.4896 14.1216 13.0882C16.9393 11.8471 20.8737 11.6281 23.8811 11.2852V10.6136C23.8811 9.37988 23.9759 7.92002 23.2534 6.85435C22.6182 5.89808 21.4066 5.50388 20.3407 5.50388C18.3627 5.50388 16.5962 6.51846 16.1655 8.62071C16.0778 9.088 15.7348 9.5479 15.2677 9.56975L10.231 9.02969C9.80769 8.9346 9.34056 8.59163 9.45734 7.94186C10.6179 1.8396 16.1289 0 21.0633 0C23.589 0 26.8883 0.671618 28.8811 2.58415C31.4068 4.94182 31.1658 8.08788 31.1658 11.5114V19.5992C31.1658 22.03 32.1732 23.0957 33.122 24.4097C33.4578 24.8768 33.5309 25.439 33.1074 25.7892C32.049 26.6724 30.1657 28.3149 29.1293 29.2347L29.1147 29.2201" fill="white"></path>
</g>
<defs>
<clipPath id="clip0_623_18160">
<rect width="40" height="40" fill="white" transform="translate(0.333374)"></rect>
</clipPath>
</defs>
</svg>