<svg width="41" height="40" viewBox="0 0 41 40" fill="none" xmlns="http://www.w3.org/2000/svg">
<mask id="mask0_623_16514" style="mask-type:alpha" maskUnits="userSpaceOnUse" x="0" y="0" width="41" height="40">
<rect x="0.666626" width="40" height="40" rx="4" fill="#C4C4C4"></rect>
</mask>
<g mask="url(#mask0_623_16514)">
</g>
<path d="M22.8656 13.1783C19.1307 12.9286 15.8374 15.9716 15.8138 19.7296C15.8139 19.7338 15.8127 19.7378 15.8104 19.7413C15.8081 19.7448 15.8048 19.7475 15.8009 19.7491C15.797 19.7507 15.7927 19.7511 15.7885 19.7503C15.7843 19.7494 15.7805 19.7474 15.7774 19.7445L7.50101 11.4568C7.4928 11.4487 7.48716 11.4384 7.48479 11.4272C7.48242 11.4159 7.48342 11.4043 7.48767 11.3937C7.50374 11.353 7.52648 11.3075 7.55588 11.2573C10.8738 5.53523 16.9784 2.25523 23.5913 2.67164C31.8605 3.19215 38.4759 9.47472 39.422 17.7404C40.539 27.4947 33.5897 36.0568 23.8205 36.8727C23.182 36.926 22.3349 36.9096 21.6236 36.9096C15.0557 36.9106 8.45519 36.9104 1.82203 36.9091C1.80357 36.9091 1.79434 36.8998 1.79434 36.8814C1.79331 35.5751 1.79365 34.2631 1.79536 32.9455C1.79571 32.5127 1.81331 32.1715 1.84818 31.9219C2.25331 29.0209 4.56101 26.7742 7.45742 26.4368C7.68853 26.4098 8.02972 26.3963 8.48101 26.3963C13.0431 26.3942 17.6049 26.3939 22.1666 26.3952C22.6039 26.3956 22.9451 26.381 23.1902 26.3516C26.9866 25.8983 29.6061 22.3978 28.9231 18.5993C28.3784 15.5716 25.9415 13.3834 22.8656 13.1783Z" fill="#0EBDFF"></path>
</svg>