<svg width="40" height="40" viewBox="0 0 40 40" fill="none" xmlns="http://www.w3.org/2000/svg">
<mask id="mask0_623_19697" style="mask-type:alpha" maskUnits="userSpaceOnUse" x="0" y="0" width="40" height="40">
<rect width="40" height="40" rx="4" fill="#C4C4C4"></rect>
</mask>
<g mask="url(#mask0_623_19697)">
</g>
<g clip-path="url(#clip0_623_19697)">
<path d="M28.4049 20.0656C28.4063 20.0509 28.4039 20.0361 28.3979 20.0228C28.3919 20.0096 28.3825 19.9982 28.3707 19.99C21.7414 15.3298 15.1016 10.6697 8.4512 6.00951C7.60973 5.41683 7.36583 4.75342 7.36095 3.67781C7.3577 2.47455 7.35445 1.27455 7.3512 0.0778061C7.35141 0.0676214 7.3543 0.057621 7.35956 0.0488851C7.36482 0.0401492 7.37225 0.03301 7.38103 0.0282392C7.38982 0.0234684 7.39964 0.0212472 7.40943 0.0218157C7.41921 0.0223841 7.4286 0.025721 7.43656 0.031465C15.6008 5.79732 23.7731 11.5575 31.9536 17.312C34.1853 18.8827 33.9195 21.49 31.7561 22.9973C23.6845 28.6217 15.6065 34.2542 7.52193 39.8949C7.51168 39.902 7.49968 39.9062 7.48722 39.907C7.47477 39.9078 7.46233 39.9051 7.45127 39.8994C7.4402 39.8936 7.43094 39.8849 7.42448 39.8742C7.41801 39.8635 7.4146 39.8513 7.41461 39.8388C7.42762 38.6648 7.43331 37.4811 7.43168 36.2876C7.43006 35.2193 7.78697 34.4372 8.50242 33.9412C15.1138 29.3689 21.7146 24.7819 28.3049 20.1802C28.313 20.1754 28.3268 20.1689 28.3463 20.1607C28.3821 20.1445 28.4016 20.1128 28.4049 20.0656Z" fill="#004DFF"></path>
<path d="M16.7414 21.6242C16.5691 21.5559 16.4065 21.4681 16.2536 21.3608L7.40486 15.2023C7.36242 15.1727 7.32737 15.1335 7.30241 15.0878C7.27746 15.0421 7.26327 14.9912 7.26095 14.9389C7.22925 14.1437 7.05608 12.2364 7.53656 11.6047C8.1512 10.7901 9.17559 11.2169 9.98047 11.7803C13.8211 14.4665 17.6585 17.1511 21.4927 19.834C21.5032 19.8414 21.5119 19.8513 21.5178 19.8627C21.5238 19.8742 21.5269 19.8869 21.5269 19.8998C21.5269 19.9128 21.5238 19.9255 21.5178 19.9369C21.5119 19.9484 21.5032 19.9583 21.4927 19.9657C20.0731 20.9242 18.6171 22.3706 16.7414 21.6242Z" fill="#004DFF"></path>
</g>
<defs>
<clipPath id="clip0_623_19697">
<rect width="26.5854" height="40" fill="white" transform="translate(7)"></rect>
</clipPath>
</defs>
</svg>