<svg width="726" height="372" viewBox="0 0 726 372" fill="none" xmlns="http://www.w3.org/2000/svg">
<g filter="url(#filter0_dd_742_14264)">
<rect x="33.2217" y="22.6514" width="660" height="306.466" rx="12" fill="url(#paint0_linear_742_14264)" shape-rendering="crispEdges"></rect>
<path d="M61.2 62.2854C56.778 62.2854 54.006 59.1614 54.006 54.4534C54.006 49.7894 56.888 46.6214 61.354 46.6214C64.764 46.6214 67.25 48.6014 67.822 51.7914H65.798C65.204 49.6574 63.576 48.3814 61.266 48.3814C58.032 48.3814 55.964 50.8894 55.964 54.4534C55.964 57.9954 57.944 60.5254 61.178 60.5254C63.554 60.5254 65.204 59.2714 65.776 57.1154H67.8C67.228 60.3054 64.676 62.2854 61.2 62.2854ZM77.7012 56.5434V50.9334H79.5052V62.1534H77.9432L77.7012 60.6574C77.0412 61.4934 75.9632 62.2854 74.1152 62.2854C71.6512 62.2854 69.6932 60.8994 69.6932 57.1814V50.9334H71.4972V57.0714C71.4972 59.4034 72.5532 60.6354 74.4232 60.6354C76.4692 60.6354 77.7012 59.0734 77.7012 56.5434ZM81.5024 58.4574H83.3504C83.4164 59.7774 84.5824 60.7454 86.4524 60.7454C88.0364 60.7454 89.1584 60.0634 89.1584 59.0294C89.1584 57.6214 87.9264 57.5114 86.2544 57.3134C83.7464 57.0054 81.7444 56.4994 81.7444 54.1674C81.7444 52.1214 83.6144 50.7794 86.1444 50.8014C88.6964 50.8234 90.5444 52.0114 90.7204 54.3434H88.8724C88.7404 53.1994 87.6844 52.3414 86.1444 52.3414C84.5824 52.3414 83.5264 53.0014 83.5264 54.0354C83.5264 55.2674 84.7144 55.4214 86.3424 55.6194C88.8944 55.9274 90.9404 56.4114 90.9404 58.8974C90.9404 60.9874 88.9384 62.2854 86.4524 62.2854C83.5484 62.2854 81.5464 60.9214 81.5024 58.4574ZM93.7789 59.2274V52.5834H91.7549V50.9334H93.7789V47.7874H95.5829V50.9334H98.4869V52.5834H95.5829V59.2054C95.5829 60.1514 95.9129 60.5034 96.8809 60.5034H98.6629V62.1534H96.7049C94.5489 62.1534 93.7789 61.2074 93.7789 59.2274ZM105.117 62.2854C101.839 62.2854 99.5508 59.9534 99.5508 56.5434C99.5508 53.1334 101.839 50.8014 105.117 50.8014C108.395 50.8014 110.683 53.1334 110.683 56.5434C110.683 59.9534 108.395 62.2854 105.117 62.2854ZM105.117 60.6794C107.339 60.6794 108.835 58.9414 108.835 56.5434C108.835 54.1454 107.339 52.4074 105.117 52.4074C102.895 52.4074 101.399 54.1454 101.399 56.5434C101.399 58.9414 102.895 60.6794 105.117 60.6794ZM125.27 50.8014C127.602 50.8014 129.516 52.1434 129.516 55.6854V62.1534H127.712V55.7954C127.712 53.5954 126.744 52.4514 125.05 52.4514C123.18 52.4514 122.036 53.8594 122.036 56.1474V62.1534H120.232V55.7954C120.232 53.5954 119.242 52.4514 117.526 52.4514C115.678 52.4514 114.556 53.9914 114.556 56.2354V62.1534H112.752V50.9334H114.314L114.556 52.4734C115.15 51.6594 116.096 50.8014 117.834 50.8014C119.396 50.8014 120.738 51.5054 121.376 52.9354C122.058 51.7254 123.268 50.8014 125.27 50.8014ZM137.851 62.1534V46.7534H140.271L145.727 59.5354L151.117 46.7534H153.493V62.1534H151.623V50.0094L146.519 62.1534H144.825L139.721 50.0094V62.1534H137.851ZM161.384 62.2854C158.018 62.2854 155.818 59.9754 155.818 56.5434C155.818 53.1334 157.974 50.8014 161.142 50.8014C164.31 50.8014 166.378 52.8034 166.466 56.1254C166.466 56.3674 166.444 56.6314 166.422 56.8954H157.71V57.0494C157.776 59.1834 159.118 60.6794 161.252 60.6794C162.836 60.6794 164.068 59.8434 164.442 58.3914H166.268C165.828 60.6354 163.98 62.2854 161.384 62.2854ZM157.82 55.3994H164.53C164.354 53.4634 163.034 52.3854 161.164 52.3854C159.514 52.3854 157.996 53.5734 157.82 55.3994ZM169.232 59.2274V52.5834H167.208V50.9334H169.232V47.7874H171.036V50.9334H173.94V52.5834H171.036V59.2054C171.036 60.1514 171.366 60.5034 172.334 60.5034H174.116V62.1534H172.158C170.002 62.1534 169.232 61.2074 169.232 59.2274ZM180.871 50.9334H181.377V52.6934H180.475C178.121 52.6934 177.483 54.6514 177.483 56.4334V62.1534H175.679V50.9334H177.241L177.483 52.6274C178.011 51.7694 178.869 50.9334 180.871 50.9334ZM183.865 49.0414C183.205 49.0414 182.699 48.5574 182.699 47.8754C182.699 47.1934 183.205 46.7094 183.865 46.7094C184.525 46.7094 185.031 47.1934 185.031 47.8754C185.031 48.5574 184.525 49.0414 183.865 49.0414ZM182.941 62.1534V50.9334H184.745V62.1534H182.941ZM192.254 62.2854C188.976 62.2854 186.82 60.0634 186.82 56.5654C186.82 53.1334 189.042 50.8014 192.298 50.8014C195.048 50.8014 196.786 52.3414 197.248 54.8054H195.356C195.026 53.3094 193.926 52.4074 192.276 52.4074C190.12 52.4074 188.668 54.1234 188.668 56.5654C188.668 59.0074 190.12 60.6794 192.276 60.6794C193.882 60.6794 194.982 59.7554 195.334 58.3254H197.248C196.808 60.7454 194.982 62.2854 192.254 62.2854ZM198.764 58.4574H200.612C200.678 59.7774 201.844 60.7454 203.714 60.7454C205.298 60.7454 206.42 60.0634 206.42 59.0294C206.42 57.6214 205.188 57.5114 203.516 57.3134C201.008 57.0054 199.006 56.4994 199.006 54.1674C199.006 52.1214 200.876 50.7794 203.406 50.8014C205.958 50.8234 207.806 52.0114 207.982 54.3434H206.134C206.002 53.1994 204.946 52.3414 203.406 52.3414C201.844 52.3414 200.788 53.0014 200.788 54.0354C200.788 55.2674 201.976 55.4214 203.604 55.6194C206.156 55.9274 208.202 56.4114 208.202 58.8974C208.202 60.9874 206.2 62.2854 203.714 62.2854C200.81 62.2854 198.808 60.9214 198.764 58.4574ZM223.2 56.6534H215.874V55.1354H223.2V56.6534ZM230.532 48.5134V46.7534H242.434V48.5134H237.44V62.1534H235.526V48.5134H230.532ZM247.3 62.2854C244.022 62.2854 241.734 59.9534 241.734 56.5434C241.734 53.1334 244.022 50.8014 247.3 50.8014C250.578 50.8014 252.866 53.1334 252.866 56.5434C252.866 59.9534 250.578 62.2854 247.3 62.2854ZM247.3 60.6794C249.522 60.6794 251.018 58.9414 251.018 56.5434C251.018 54.1454 249.522 52.4074 247.3 52.4074C245.078 52.4074 243.582 54.1454 243.582 56.5434C243.582 58.9414 245.078 60.6794 247.3 60.6794ZM255.642 59.2274V52.5834H253.618V50.9334H255.642V47.7874H257.446V50.9334H260.35V52.5834H257.446V59.2054C257.446 60.1514 257.776 60.5034 258.744 60.5034H260.526V62.1534H258.568C256.412 62.1534 255.642 61.2074 255.642 59.2274ZM271.84 60.5034H272.412V62.1534H271.422C269.926 62.1534 269.42 61.5154 269.398 60.4154C268.694 61.4274 267.572 62.2854 265.636 62.2854C263.172 62.2854 261.5 61.0534 261.5 59.0074C261.5 56.7634 263.062 55.5094 266.01 55.5094H269.31V54.7394C269.31 53.2874 268.276 52.4074 266.516 52.4074C264.932 52.4074 263.876 53.1554 263.656 54.2994H261.852C262.116 52.0994 263.898 50.8014 266.604 50.8014C269.464 50.8014 271.114 52.2314 271.114 54.8494V59.7554C271.114 60.3494 271.334 60.5034 271.84 60.5034ZM269.31 57.5774V57.0274H265.834C264.228 57.0274 263.326 57.6214 263.326 58.8974C263.326 59.9974 264.272 60.7454 265.768 60.7454C268.012 60.7454 269.31 59.4474 269.31 57.5774ZM273.798 62.1534V46.7534H275.602V62.1534H273.798ZM283.48 57.1154H285.46C285.614 59.1834 287.22 60.5474 289.574 60.5474C291.642 60.5474 293.116 59.6014 293.116 57.9294C293.116 56.0154 291.224 55.6194 288.892 55.2234C286.406 54.8054 283.854 53.9914 283.854 50.9994C283.854 48.3814 285.988 46.6214 289.112 46.6214C292.544 46.6214 294.656 48.5354 294.832 51.3074H292.852C292.632 49.5254 291.202 48.3594 289.112 48.3594C287.11 48.3594 285.768 49.2394 285.768 50.8894C285.768 52.7374 287.638 53.1114 289.948 53.5074C292.456 53.9254 295.03 54.7614 295.03 57.7534C295.03 60.4154 292.786 62.2854 289.552 62.2854C285.79 62.2854 283.59 60.1514 283.48 57.1154ZM307.117 60.5034H307.689V62.1534H306.699C305.203 62.1534 304.697 61.5154 304.675 60.4154C303.971 61.4274 302.849 62.2854 300.913 62.2854C298.449 62.2854 296.777 61.0534 296.777 59.0074C296.777 56.7634 298.339 55.5094 301.287 55.5094H304.587V54.7394C304.587 53.2874 303.553 52.4074 301.793 52.4074C300.209 52.4074 299.153 53.1554 298.933 54.2994H297.129C297.393 52.0994 299.175 50.8014 301.881 50.8014C304.741 50.8014 306.391 52.2314 306.391 54.8494V59.7554C306.391 60.3494 306.611 60.5034 307.117 60.5034ZM304.587 57.5774V57.0274H301.111C299.505 57.0274 298.603 57.6214 298.603 58.8974C298.603 59.9974 299.549 60.7454 301.045 60.7454C303.289 60.7454 304.587 59.4474 304.587 57.5774ZM309.076 62.1534V46.7534H310.88V62.1534H309.076ZM318.521 62.2854C315.155 62.2854 312.955 59.9754 312.955 56.5434C312.955 53.1334 315.111 50.8014 318.279 50.8014C321.447 50.8014 323.515 52.8034 323.603 56.1254C323.603 56.3674 323.581 56.6314 323.559 56.8954H314.847V57.0494C314.913 59.1834 316.255 60.6794 318.389 60.6794C319.973 60.6794 321.205 59.8434 321.579 58.3914H323.405C322.965 60.6354 321.117 62.2854 318.521 62.2854ZM314.957 55.3994H321.667C321.491 53.4634 320.171 52.3854 318.301 52.3854C316.651 52.3854 315.133 53.5734 314.957 55.3994ZM325.157 58.4574H327.005C327.071 59.7774 328.237 60.7454 330.107 60.7454C331.691 60.7454 332.813 60.0634 332.813 59.0294C332.813 57.6214 331.581 57.5114 329.909 57.3134C327.401 57.0054 325.399 56.4994 325.399 54.1674C325.399 52.1214 327.269 50.7794 329.799 50.8014C332.351 50.8234 334.199 52.0114 334.375 54.3434H332.527C332.395 53.1994 331.339 52.3414 329.799 52.3414C328.237 52.3414 327.181 53.0014 327.181 54.0354C327.181 55.2674 328.369 55.4214 329.997 55.6194C332.549 55.9274 334.595 56.4114 334.595 58.8974C334.595 60.9874 332.593 62.2854 330.107 62.2854C327.203 62.2854 325.201 60.9214 325.157 58.4574Z" fill="white"></path>
<rect x="-0.493463" y="0.493463" width="378.134" height="227.193" rx="5.50654" transform="matrix(-1 0 0 1 430.858 81.4353)" fill="url(#paint1_linear_742_14264)"></rect>
<path d="M360.664 98.0097L347.68 98.0094C343.736 98.0093 340.539 101.207 340.539 105.15L340.54 118.134C340.54 122.078 343.737 125.275 347.681 125.275L360.664 125.275C364.608 125.275 367.805 122.078 367.805 118.134V105.151C367.805 101.207 364.608 98.0098 360.664 98.0097Z" fill="url(#paint2_linear_742_14264)" stroke="url(#paint3_linear_742_14264)" stroke-width="1.29836"></path>
<path d="M348.979 111.642C348.979 110.925 349.56 110.344 350.277 110.344H358.067C358.784 110.344 359.365 110.925 359.365 111.642C359.365 112.359 358.784 112.94 358.067 112.94H350.277C349.56 112.94 348.979 112.359 348.979 111.642Z" fill="white"></path>
<rect x="226.148" y="96.3468" width="107.249" height="30.5904" rx="3.89508" fill="url(#paint4_linear_742_14264)"></rect>
<rect x="233.938" y="102.268" width="18.177" height="18.177" rx="3.89508" fill="#8B85FE" fill-opacity="0.46"></rect>
<mask id="mask0_742_14264" style="mask-type:alpha" maskUnits="userSpaceOnUse" x="237" y="106" width="12" height="11">
<rect x="237.834" y="106.163" width="10.3869" height="10.3869" rx="5.19344" fill="#C4C4C4"></rect>
</mask>
<g mask="url(#mask0_742_14264)">
</g>
<g clip-path="url(#clip0_742_14264)">
<path d="M246.435 108.203C246.428 108.151 246.383 108.122 246.345 108.119C246.307 108.116 245.513 108.057 245.513 108.057C245.513 108.057 244.962 107.51 244.901 107.449C244.84 107.388 244.722 107.407 244.676 107.42C244.669 107.422 244.556 107.458 244.368 107.516C244.183 106.986 243.858 106.498 243.286 106.498C243.27 106.498 243.254 106.499 243.238 106.5C243.075 106.285 242.873 106.191 242.699 106.191C241.367 106.191 240.73 107.857 240.53 108.704C240.012 108.864 239.645 108.978 239.598 108.993C239.309 109.084 239.299 109.093 239.261 109.365C239.233 109.571 238.477 115.42 238.477 115.42L244.37 116.525L247.563 115.834C247.563 115.834 246.442 108.255 246.435 108.203H246.435ZM244.042 107.616L243.543 107.771C243.543 107.736 243.543 107.701 243.543 107.663C243.543 107.334 243.498 107.068 243.424 106.858C243.719 106.895 243.915 107.23 244.042 107.616ZM243.059 106.923C243.141 107.129 243.194 107.424 243.194 107.821C243.194 107.842 243.194 107.86 243.194 107.879C242.869 107.979 242.517 108.088 242.164 108.198C242.362 107.433 242.734 107.063 243.059 106.923ZM242.663 106.549C242.72 106.549 242.778 106.568 242.834 106.606C242.407 106.807 241.949 107.313 241.755 108.324L240.941 108.576C241.168 107.805 241.705 106.549 242.663 106.549H242.663Z" fill="#95BF46"></path>
<path d="M246.345 108.119C246.307 108.116 245.513 108.057 245.513 108.057C245.513 108.057 244.961 107.51 244.901 107.449C244.878 107.427 244.848 107.415 244.816 107.41L244.37 116.525L247.563 115.834C247.563 115.834 246.442 108.255 246.435 108.203C246.428 108.151 246.382 108.122 246.345 108.119Z" fill="#5E8E3E"></path>
<path d="M243.286 109.884L242.892 111.055C242.892 111.055 242.547 110.871 242.124 110.871C241.504 110.871 241.473 111.26 241.473 111.358C241.473 111.893 242.867 112.098 242.867 113.351C242.867 114.337 242.242 114.971 241.399 114.971C240.387 114.971 239.87 114.342 239.87 114.342L240.141 113.447C240.141 113.447 240.673 113.903 241.122 113.903C241.415 113.903 241.534 113.672 241.534 113.504C241.534 112.806 240.39 112.775 240.39 111.628C240.39 110.663 241.083 109.729 242.481 109.729C243.02 109.729 243.286 109.884 243.286 109.884Z" fill="white"></path>
</g>
<rect x="234.588" y="102.918" width="16.8787" height="16.8787" rx="3.2459" stroke="#5B73DF" stroke-opacity="0.2" stroke-width="1.29836"></rect>
<path d="M264.461 116.357H261.325V106.557H264.461C267.527 106.557 269.389 108.517 269.389 111.457C269.389 114.383 267.527 116.357 264.461 116.357ZM262.543 107.677V115.237H264.461C266.841 115.237 268.143 113.739 268.143 111.457C268.143 109.161 266.841 107.677 264.461 107.677H262.543ZM271.343 108.013C270.923 108.013 270.601 107.705 270.601 107.271C270.601 106.837 270.923 106.529 271.343 106.529C271.763 106.529 272.085 106.837 272.085 107.271C272.085 107.705 271.763 108.013 271.343 108.013ZM270.755 116.357V109.217H271.903V116.357H270.755ZM273.181 114.005H274.357C274.399 114.845 275.141 115.461 276.331 115.461C277.339 115.461 278.053 115.027 278.053 114.369C278.053 113.473 277.269 113.403 276.205 113.277C274.609 113.081 273.335 112.759 273.335 111.275C273.335 109.973 274.525 109.119 276.135 109.133C277.759 109.147 278.935 109.903 279.047 111.387H277.871C277.787 110.659 277.115 110.113 276.135 110.113C275.141 110.113 274.469 110.533 274.469 111.191C274.469 111.975 275.225 112.073 276.261 112.199C277.885 112.395 279.187 112.703 279.187 114.285C279.187 115.615 277.913 116.441 276.331 116.441C274.483 116.441 273.209 115.573 273.181 114.005ZM283.668 116.441C281.582 116.441 280.21 115.027 280.21 112.801C280.21 110.617 281.624 109.133 283.696 109.133C285.446 109.133 286.552 110.113 286.846 111.681H285.642C285.432 110.729 284.732 110.155 283.682 110.155C282.31 110.155 281.386 111.247 281.386 112.801C281.386 114.355 282.31 115.419 283.682 115.419C284.704 115.419 285.404 114.831 285.628 113.921H286.846C286.566 115.461 285.404 116.441 283.668 116.441ZM291.394 116.441C289.308 116.441 287.852 114.957 287.852 112.787C287.852 110.617 289.308 109.133 291.394 109.133C293.48 109.133 294.936 110.617 294.936 112.787C294.936 114.957 293.48 116.441 291.394 116.441ZM291.394 115.419C292.808 115.419 293.76 114.313 293.76 112.787C293.76 111.261 292.808 110.155 291.394 110.155C289.98 110.155 289.028 111.261 289.028 112.787C289.028 114.313 289.98 115.419 291.394 115.419ZM301.251 112.787V109.217H302.399V116.357H301.405L301.251 115.405C300.831 115.937 300.145 116.441 298.969 116.441C297.401 116.441 296.155 115.559 296.155 113.193V109.217H297.303V113.123C297.303 114.607 297.975 115.391 299.165 115.391C300.467 115.391 301.251 114.397 301.251 112.787ZM307.464 109.133C309.074 109.133 310.348 110.015 310.348 112.381V116.357H309.2V112.451C309.2 110.967 308.514 110.183 307.268 110.183C305.924 110.183 305.112 111.177 305.112 112.787V116.357H303.964V109.217H304.958L305.112 110.183C305.532 109.637 306.26 109.133 307.464 109.133ZM312.343 114.495V110.267H311.055V109.217H312.343V107.215H313.491V109.217H315.339V110.267H313.491V114.481C313.491 115.083 313.701 115.307 314.317 115.307H315.451V116.357H314.205C312.833 116.357 312.343 115.755 312.343 114.495ZM316.152 114.005H317.328C317.37 114.845 318.112 115.461 319.302 115.461C320.31 115.461 321.024 115.027 321.024 114.369C321.024 113.473 320.24 113.403 319.176 113.277C317.58 113.081 316.306 112.759 316.306 111.275C316.306 109.973 317.496 109.119 319.106 109.133C320.73 109.147 321.906 109.903 322.018 111.387H320.842C320.758 110.659 320.086 110.113 319.106 110.113C318.112 110.113 317.44 110.533 317.44 111.191C317.44 111.975 318.196 112.073 319.232 112.199C320.856 112.395 322.158 112.703 322.158 114.285C322.158 115.615 320.884 116.441 319.302 116.441C317.454 116.441 316.18 115.573 316.152 114.005Z" fill="#C3BFFF"></path>
<rect x="226.642" y="96.8403" width="106.263" height="29.6035" rx="3.40162" stroke="#918AFF" stroke-opacity="0.5" stroke-width="0.986926"></rect>
<path d="M211.864 98.0097L198.881 98.0094C194.937 98.0093 191.739 101.207 191.739 105.15L191.74 118.134C191.74 122.078 194.937 125.275 198.881 125.275L211.864 125.275C215.808 125.275 219.005 122.078 219.005 118.134V105.151C219.005 101.207 215.808 98.0098 211.864 98.0097Z" fill="url(#paint5_linear_742_14264)" stroke="url(#paint6_linear_742_14264)" stroke-width="1.29836"></path>
<path d="M200.179 111.642C200.179 110.925 200.76 110.344 201.477 110.344H209.267C209.984 110.344 210.566 110.925 210.566 111.642C210.566 112.359 209.984 112.94 209.267 112.94H201.477C200.76 112.94 200.179 112.359 200.179 111.642Z" fill="white"></path>
<rect x="67.3496" y="96.3468" width="117.249" height="30.5904" rx="3.89508" fill="url(#paint7_linear_742_14264)"></rect>
<rect x="75.1396" y="102.268" width="18.177" height="18.177" rx="3.89508" fill="#8B85FE" fill-opacity="0.46"></rect>
<mask id="mask1_742_14264" style="mask-type:alpha" maskUnits="userSpaceOnUse" x="79" y="106" width="11" height="11">
<rect x="79.0352" y="106.163" width="10.3869" height="10.3869" rx="5.19344" fill="#C4C4C4"></rect>
</mask>
<g mask="url(#mask1_742_14264)">
</g>
<g clip-path="url(#clip1_742_14264)">
<path d="M87.6364 108.203C87.6292 108.151 87.5837 108.122 87.5461 108.119C87.5086 108.116 86.7143 108.057 86.7143 108.057C86.7143 108.057 86.1627 107.51 86.1022 107.449C86.0416 107.388 85.9233 107.407 85.8774 107.42C85.8706 107.422 85.7569 107.458 85.5687 107.516C85.3844 106.986 85.0592 106.498 84.4871 106.498C84.4713 106.498 84.4551 106.499 84.4388 106.5C84.2761 106.285 84.0746 106.191 83.9005 106.191C82.5678 106.191 81.9311 107.857 81.7315 108.704C81.2136 108.864 80.8458 108.978 80.7988 108.993C80.5097 109.084 80.5006 109.093 80.4626 109.365C80.4341 109.571 79.6777 115.42 79.6777 115.42L85.5711 116.525L88.7644 115.834C88.7644 115.834 87.6434 108.255 87.6364 108.203H87.6364ZM85.243 107.616L84.7443 107.771C84.7445 107.736 84.7446 107.701 84.7446 107.663C84.7446 107.334 84.6989 107.068 84.6255 106.858C84.9203 106.895 85.1166 107.23 85.243 107.616ZM84.2598 106.923C84.3418 107.129 84.3951 107.424 84.3951 107.821C84.3951 107.842 84.3949 107.86 84.3947 107.879C84.0704 107.979 83.718 108.088 83.3648 108.198C83.5631 107.433 83.9349 107.063 84.2598 106.923ZM83.8639 106.549C83.9214 106.549 83.9794 106.568 84.0348 106.606C83.6077 106.807 83.1499 107.313 82.9566 108.324L82.1425 108.576C82.3689 107.805 82.9066 106.549 83.8639 106.549H83.8639Z" fill="#95BF46"></path>
<path d="M87.546 108.119C87.5084 108.116 86.7142 108.057 86.7142 108.057C86.7142 108.057 86.1626 107.51 86.1021 107.449C86.0794 107.427 86.0488 107.415 86.0169 107.41L85.5713 116.525L88.7643 115.834C88.7643 115.834 87.6433 108.255 87.6362 108.203C87.6291 108.151 87.5836 108.122 87.546 108.119Z" fill="#5E8E3E"></path>
<path d="M84.4869 109.884L84.0932 111.055C84.0932 111.055 83.7482 110.871 83.3253 110.871C82.7054 110.871 82.6742 111.26 82.6742 111.358C82.6742 111.893 84.0686 112.098 84.0686 113.351C84.0686 114.337 83.4433 114.971 82.6003 114.971C81.5886 114.971 81.0713 114.342 81.0713 114.342L81.3422 113.447C81.3422 113.447 81.874 113.903 82.3227 113.903C82.6159 113.903 82.7352 113.672 82.7352 113.504C82.7352 112.806 81.5912 112.775 81.5912 111.628C81.5912 110.663 82.2838 109.729 83.682 109.729C84.2208 109.729 84.4869 109.884 84.4869 109.884Z" fill="white"></path>
</g>
<rect x="75.7888" y="102.918" width="16.8787" height="16.8787" rx="3.2459" stroke="#5B73DF" stroke-opacity="0.2" stroke-width="1.29836"></rect>
<path d="M106.73 116.441C104.014 116.441 102.124 114.425 102.124 111.457C102.124 108.489 103.958 106.473 106.8 106.473C108.97 106.473 110.608 107.733 110.944 109.749H109.642C109.306 108.391 108.256 107.593 106.772 107.593C104.714 107.593 103.37 109.189 103.37 111.457C103.37 113.725 104.714 115.321 106.744 115.321C108.55 115.321 109.852 114.243 109.852 112.507V112.171H106.912V111.051H111.042V116.357H109.992L109.908 114.929C109.46 115.643 108.41 116.441 106.73 116.441ZM116.083 109.217H116.405V110.337H115.831C114.333 110.337 113.927 111.583 113.927 112.717V116.357H112.779V109.217H113.773L113.927 110.295C114.263 109.749 114.809 109.217 116.083 109.217ZM120.28 116.441C118.194 116.441 116.738 114.957 116.738 112.787C116.738 110.617 118.194 109.133 120.28 109.133C122.366 109.133 123.822 110.617 123.822 112.787C123.822 114.957 122.366 116.441 120.28 116.441ZM120.28 115.419C121.694 115.419 122.646 114.313 122.646 112.787C122.646 111.261 121.694 110.155 120.28 110.155C118.866 110.155 117.914 111.261 117.914 112.787C117.914 114.313 118.866 115.419 120.28 115.419ZM124.817 114.005H125.993C126.035 114.845 126.777 115.461 127.967 115.461C128.975 115.461 129.689 115.027 129.689 114.369C129.689 113.473 128.905 113.403 127.841 113.277C126.245 113.081 124.971 112.759 124.971 111.275C124.971 109.973 126.161 109.119 127.771 109.133C129.395 109.147 130.571 109.903 130.683 111.387H129.507C129.423 110.659 128.751 110.113 127.771 110.113C126.777 110.113 126.105 110.533 126.105 111.191C126.105 111.975 126.861 112.073 127.897 112.199C129.521 112.395 130.823 112.703 130.823 114.285C130.823 115.615 129.549 116.441 127.967 116.441C126.119 116.441 124.845 115.573 124.817 114.005ZM131.667 114.005H132.843C132.885 114.845 133.627 115.461 134.817 115.461C135.825 115.461 136.539 115.027 136.539 114.369C136.539 113.473 135.755 113.403 134.691 113.277C133.095 113.081 131.821 112.759 131.821 111.275C131.821 109.973 133.011 109.119 134.621 109.133C136.245 109.147 137.421 109.903 137.533 111.387H136.357C136.273 110.659 135.601 110.113 134.621 110.113C133.627 110.113 132.955 110.533 132.955 111.191C132.955 111.975 133.711 112.073 134.747 112.199C136.371 112.395 137.673 112.703 137.673 114.285C137.673 115.615 136.399 116.441 134.817 116.441C132.969 116.441 131.695 115.573 131.667 114.005ZM142.317 114.005H143.493C143.535 114.845 144.277 115.461 145.467 115.461C146.475 115.461 147.189 115.027 147.189 114.369C147.189 113.473 146.405 113.403 145.341 113.277C143.745 113.081 142.471 112.759 142.471 111.275C142.471 109.973 143.661 109.119 145.271 109.133C146.895 109.147 148.071 109.903 148.183 111.387H147.007C146.923 110.659 146.251 110.113 145.271 110.113C144.277 110.113 143.605 110.533 143.605 111.191C143.605 111.975 144.361 112.073 145.397 112.199C147.021 112.395 148.323 112.703 148.323 114.285C148.323 115.615 147.049 116.441 145.467 116.441C143.619 116.441 142.345 115.573 142.317 114.005ZM155.911 115.307H156.275V116.357H155.645C154.693 116.357 154.371 115.951 154.357 115.251C153.909 115.895 153.195 116.441 151.963 116.441C150.395 116.441 149.331 115.657 149.331 114.355C149.331 112.927 150.325 112.129 152.201 112.129H154.301V111.639C154.301 110.715 153.643 110.155 152.523 110.155C151.515 110.155 150.843 110.631 150.703 111.359H149.555C149.723 109.959 150.857 109.133 152.579 109.133C154.399 109.133 155.449 110.043 155.449 111.709V114.831C155.449 115.209 155.589 115.307 155.911 115.307ZM154.301 113.445V113.095H152.089C151.067 113.095 150.493 113.473 150.493 114.285C150.493 114.985 151.095 115.461 152.047 115.461C153.475 115.461 154.301 114.635 154.301 113.445ZM157.158 116.357V106.557H158.306V116.357H157.158ZM163.169 116.441C161.027 116.441 159.627 114.971 159.627 112.787C159.627 110.617 160.999 109.133 163.015 109.133C165.031 109.133 166.347 110.407 166.403 112.521C166.403 112.675 166.389 112.843 166.375 113.011H160.831V113.109C160.873 114.467 161.727 115.419 163.085 115.419C164.093 115.419 164.877 114.887 165.115 113.963H166.277C165.997 115.391 164.821 116.441 163.169 116.441ZM160.901 112.059H165.171C165.059 110.827 164.219 110.141 163.029 110.141C161.979 110.141 161.013 110.897 160.901 112.059ZM167.391 114.005H168.567C168.609 114.845 169.351 115.461 170.541 115.461C171.549 115.461 172.263 115.027 172.263 114.369C172.263 113.473 171.479 113.403 170.415 113.277C168.819 113.081 167.545 112.759 167.545 111.275C167.545 109.973 168.735 109.119 170.345 109.133C171.969 109.147 173.145 109.903 173.257 111.387H172.081C171.997 110.659 171.325 110.113 170.345 110.113C169.351 110.113 168.679 110.533 168.679 111.191C168.679 111.975 169.435 112.073 170.471 112.199C172.095 112.395 173.397 112.703 173.397 114.285C173.397 115.615 172.123 116.441 170.541 116.441C168.693 116.441 167.419 115.573 167.391 114.005Z" fill="#C3BFFF"></path>
<rect x="67.8431" y="96.8403" width="116.263" height="29.6035" rx="3.40162" stroke="#918AFF" stroke-opacity="0.5" stroke-width="0.986926"></rect>
<rect x="201.148" y="137.894" width="150.249" height="30.5904" rx="3.89508" fill="url(#paint8_linear_742_14264)"></rect>
<rect x="208.938" y="143.816" width="18.177" height="18.177" rx="3.89508" fill="#8B85FE" fill-opacity="0.46"></rect>
<mask id="mask2_742_14264" style="mask-type:alpha" maskUnits="userSpaceOnUse" x="212" y="147" width="12" height="12">
<rect x="212.834" y="147.711" width="10.3869" height="10.3869" rx="5.19344" fill="#C4C4C4"></rect>
</mask>
<g mask="url(#mask2_742_14264)">
</g>
<g clip-path="url(#clip2_742_14264)">
<path d="M221.435 149.751C221.428 149.699 221.383 149.67 221.345 149.667C221.307 149.664 220.513 149.605 220.513 149.605C220.513 149.605 219.962 149.057 219.901 148.997C219.84 148.936 219.722 148.955 219.676 148.968C219.669 148.97 219.556 149.005 219.368 149.063C219.183 148.533 218.858 148.046 218.286 148.046C218.27 148.046 218.254 148.047 218.238 148.047C218.075 147.832 217.873 147.739 217.699 147.739C216.367 147.739 215.73 149.405 215.53 150.251C215.012 150.412 214.645 150.526 214.598 150.541C214.309 150.631 214.299 150.641 214.261 150.913C214.233 151.119 213.477 156.968 213.477 156.968L219.37 158.072L222.563 157.381C222.563 157.381 221.442 149.803 221.435 149.751H221.435ZM219.042 149.164L218.543 149.318C218.543 149.283 218.543 149.249 218.543 149.211C218.543 148.881 218.498 148.616 218.424 148.406C218.719 148.443 218.915 148.778 219.042 149.164ZM218.059 148.471C218.141 148.676 218.194 148.971 218.194 149.369C218.194 149.389 218.194 149.408 218.194 149.427C217.869 149.527 217.517 149.636 217.164 149.746C217.362 148.98 217.734 148.611 218.059 148.471ZM217.663 148.096C217.72 148.096 217.778 148.116 217.834 148.154C217.407 148.355 216.949 148.861 216.755 149.872L215.941 150.124C216.168 149.353 216.705 148.096 217.663 148.096H217.663Z" fill="#95BF46"></path>
<path d="M221.345 149.667C221.307 149.664 220.513 149.605 220.513 149.605C220.513 149.605 219.961 149.057 219.901 148.997C219.878 148.974 219.848 148.963 219.816 148.958L219.37 158.072L222.563 157.382C222.563 157.382 221.442 149.803 221.435 149.751C221.428 149.699 221.382 149.67 221.345 149.667Z" fill="#5E8E3E"></path>
<path d="M218.286 151.431L217.892 152.603C217.892 152.603 217.547 152.418 217.124 152.418C216.504 152.418 216.473 152.808 216.473 152.906C216.473 153.44 217.867 153.645 217.867 154.898C217.867 155.884 217.242 156.519 216.399 156.519C215.387 156.519 214.87 155.889 214.87 155.889L215.141 154.994C215.141 154.994 215.673 155.451 216.122 155.451C216.415 155.451 216.534 155.22 216.534 155.051C216.534 154.354 215.39 154.322 215.39 153.176C215.39 152.211 216.083 151.277 217.481 151.277C218.02 151.277 218.286 151.431 218.286 151.431Z" fill="white"></path>
</g>
<rect x="209.588" y="144.465" width="16.8787" height="16.8787" rx="3.2459" stroke="#5B73DF" stroke-opacity="0.2" stroke-width="1.29836"></rect>
<path d="M240.396 157.989C237.582 157.989 235.818 156.001 235.818 153.005C235.818 150.037 237.652 148.021 240.494 148.021C242.664 148.021 244.246 149.281 244.61 151.311H243.322C242.944 149.953 241.908 149.141 240.438 149.141C238.38 149.141 237.064 150.737 237.064 153.005C237.064 155.259 238.324 156.869 240.382 156.869C241.894 156.869 242.944 156.071 243.308 154.699H244.596C244.232 156.729 242.608 157.989 240.396 157.989ZM249.189 157.989C247.103 157.989 245.647 156.505 245.647 154.335C245.647 152.165 247.103 150.681 249.189 150.681C251.275 150.681 252.731 152.165 252.731 154.335C252.731 156.505 251.275 157.989 249.189 157.989ZM249.189 156.967C250.603 156.967 251.555 155.861 251.555 154.335C251.555 152.809 250.603 151.703 249.189 151.703C247.775 151.703 246.823 152.809 246.823 154.335C246.823 155.861 247.775 156.967 249.189 156.967ZM253.726 155.553H254.902C254.944 156.393 255.686 157.009 256.876 157.009C257.884 157.009 258.598 156.575 258.598 155.917C258.598 155.021 257.814 154.951 256.75 154.825C255.154 154.629 253.88 154.307 253.88 152.823C253.88 151.521 255.07 150.667 256.68 150.681C258.304 150.695 259.48 151.451 259.592 152.935H258.416C258.332 152.207 257.66 151.661 256.68 151.661C255.686 151.661 255.014 152.081 255.014 152.739C255.014 153.523 255.77 153.621 256.806 153.747C258.43 153.943 259.732 154.251 259.732 155.833C259.732 157.163 258.458 157.989 256.876 157.989C255.028 157.989 253.754 157.121 253.726 155.553ZM261.539 156.043V151.815H260.251V150.765H261.539V148.763H262.687V150.765H264.535V151.815H262.687V156.029C262.687 156.631 262.897 156.855 263.513 156.855H264.647V157.905H263.401C262.029 157.905 261.539 157.303 261.539 156.043ZM272.595 157.989C270.509 157.989 269.053 156.505 269.053 154.335C269.053 152.165 270.509 150.681 272.595 150.681C274.681 150.681 276.137 152.165 276.137 154.335C276.137 156.505 274.681 157.989 272.595 157.989ZM272.595 156.967C274.009 156.967 274.961 155.861 274.961 154.335C274.961 152.809 274.009 151.703 272.595 151.703C271.181 151.703 270.229 152.809 270.229 154.335C270.229 155.861 271.181 156.967 272.595 156.967ZM276.616 151.815V150.765H277.904V149.967C277.904 148.707 278.436 148.105 279.766 148.105H281.068V149.155H279.836C279.262 149.155 279.052 149.393 279.052 149.939V150.765H281.068V151.815H279.052V157.905H277.904V151.815H276.616ZM289.159 150.681C291.133 150.681 292.589 152.011 292.589 154.335C292.589 156.519 291.133 157.989 289.159 157.989C287.955 157.989 287.143 157.499 286.709 156.813V160.705H285.561V150.765H286.555L286.709 151.913C287.185 151.255 287.955 150.681 289.159 150.681ZM289.047 156.967C290.461 156.967 291.413 155.889 291.413 154.335C291.413 152.781 290.461 151.703 289.047 151.703C287.647 151.703 286.695 152.781 286.695 154.307C286.695 155.875 287.647 156.967 289.047 156.967ZM297.205 150.765H297.527V151.885H296.953C295.455 151.885 295.049 153.131 295.049 154.265V157.905H293.901V150.765H294.895L295.049 151.843C295.385 151.297 295.931 150.765 297.205 150.765ZM301.402 157.989C299.316 157.989 297.86 156.505 297.86 154.335C297.86 152.165 299.316 150.681 301.402 150.681C303.488 150.681 304.944 152.165 304.944 154.335C304.944 156.505 303.488 157.989 301.402 157.989ZM301.402 156.967C302.816 156.967 303.768 155.861 303.768 154.335C303.768 152.809 302.816 151.703 301.402 151.703C299.988 151.703 299.036 152.809 299.036 154.335C299.036 155.861 299.988 156.967 301.402 156.967ZM311.889 151.857V148.105H313.037V157.905H312.043L311.889 156.757C311.413 157.415 310.643 157.989 309.439 157.989C307.465 157.989 306.009 156.659 306.009 154.335C306.009 152.151 307.465 150.681 309.439 150.681C310.643 150.681 311.455 151.171 311.889 151.857ZM309.551 156.967C310.951 156.967 311.903 155.889 311.903 154.363C311.903 152.795 310.951 151.703 309.551 151.703C308.137 151.703 307.185 152.781 307.185 154.335C307.185 155.889 308.137 156.967 309.551 156.967ZM319.598 154.335V150.765H320.746V157.905H319.752L319.598 156.953C319.178 157.485 318.492 157.989 317.316 157.989C315.748 157.989 314.502 157.107 314.502 154.741V150.765H315.65V154.671C315.65 156.155 316.322 156.939 317.512 156.939C318.814 156.939 319.598 155.945 319.598 154.335ZM325.517 157.989C323.431 157.989 322.059 156.575 322.059 154.349C322.059 152.165 323.473 150.681 325.545 150.681C327.295 150.681 328.401 151.661 328.695 153.229H327.491C327.281 152.277 326.581 151.703 325.531 151.703C324.159 151.703 323.235 152.795 323.235 154.349C323.235 155.903 324.159 156.967 325.531 156.967C326.553 156.967 327.253 156.379 327.477 155.469H328.695C328.415 157.009 327.253 157.989 325.517 157.989ZM330.486 156.043V151.815H329.198V150.765H330.486V148.763H331.634V150.765H333.482V151.815H331.634V156.029C331.634 156.631 331.844 156.855 332.46 156.855H333.594V157.905H332.348C330.976 157.905 330.486 157.303 330.486 156.043ZM334.295 155.553H335.471C335.513 156.393 336.255 157.009 337.445 157.009C338.453 157.009 339.167 156.575 339.167 155.917C339.167 155.021 338.383 154.951 337.319 154.825C335.723 154.629 334.449 154.307 334.449 152.823C334.449 151.521 335.639 150.667 337.249 150.681C338.873 150.695 340.049 151.451 340.161 152.935H338.985C338.901 152.207 338.229 151.661 337.249 151.661C336.255 151.661 335.583 152.081 335.583 152.739C335.583 153.523 336.339 153.621 337.375 153.747C338.999 153.943 340.301 154.251 340.301 155.833C340.301 157.163 339.027 157.989 337.445 157.989C335.597 157.989 334.323 157.121 334.295 155.553Z" fill="#C3BFFF"></path>
<rect x="201.642" y="138.388" width="149.263" height="29.6035" rx="3.40162" stroke="#918AFF" stroke-opacity="0.5" stroke-width="0.986926"></rect>
<path d="M186.864 139.557L173.881 139.557C169.937 139.557 166.739 142.754 166.739 146.698L166.74 159.682C166.74 163.626 169.937 166.823 173.881 166.823L186.864 166.823C190.808 166.823 194.005 163.626 194.005 159.682V146.698C194.005 142.755 190.808 139.557 186.864 139.557Z" fill="url(#paint9_linear_742_14264)" stroke="url(#paint10_linear_742_14264)" stroke-width="1.29836"></path>
<path d="M175.179 153.19C175.179 152.473 175.76 151.891 176.477 151.891H184.267C184.984 151.891 185.566 152.473 185.566 153.19C185.566 153.907 184.984 154.488 184.267 154.488H176.477C175.76 154.488 175.179 153.907 175.179 153.19Z" fill="white"></path>
<rect x="67.3496" y="137.894" width="92.2495" height="30.5904" rx="3.89508" fill="url(#paint11_linear_742_14264)"></rect>
<rect x="75.1396" y="143.816" width="18.177" height="18.177" rx="3.89508" fill="#8B85FE" fill-opacity="0.46"></rect>
<mask id="mask3_742_14264" style="mask-type:alpha" maskUnits="userSpaceOnUse" x="79" y="147" width="11" height="12">
<rect x="79.0352" y="147.711" width="10.3869" height="10.3869" rx="5.19344" fill="#C4C4C4"></rect>
</mask>
<g mask="url(#mask3_742_14264)">
</g>
<g clip-path="url(#clip3_742_14264)">
<path d="M87.6364 149.751C87.6292 149.699 87.5837 149.67 87.5461 149.667C87.5086 149.664 86.7143 149.605 86.7143 149.605C86.7143 149.605 86.1627 149.057 86.1022 148.997C86.0416 148.936 85.9233 148.955 85.8774 148.968C85.8706 148.97 85.7569 149.005 85.5687 149.063C85.3844 148.533 85.0592 148.046 84.4871 148.046C84.4713 148.046 84.4551 148.047 84.4388 148.047C84.2761 147.832 84.0746 147.739 83.9005 147.739C82.5678 147.739 81.9311 149.405 81.7315 150.251C81.2136 150.412 80.8458 150.526 80.7988 150.541C80.5097 150.631 80.5006 150.641 80.4626 150.913C80.4341 151.119 79.6777 156.968 79.6777 156.968L85.5711 158.072L88.7644 157.381C88.7644 157.381 87.6434 149.803 87.6364 149.751H87.6364ZM85.243 149.164L84.7443 149.318C84.7445 149.283 84.7446 149.249 84.7446 149.211C84.7446 148.881 84.6989 148.616 84.6255 148.406C84.9203 148.443 85.1166 148.778 85.243 149.164ZM84.2598 148.471C84.3418 148.676 84.3951 148.971 84.3951 149.369C84.3951 149.389 84.3949 149.408 84.3947 149.427C84.0704 149.527 83.718 149.636 83.3648 149.746C83.5631 148.98 83.9349 148.611 84.2598 148.471ZM83.8639 148.096C83.9214 148.096 83.9794 148.116 84.0348 148.154C83.6077 148.355 83.1499 148.861 82.9566 149.872L82.1425 150.124C82.3689 149.353 82.9066 148.096 83.8639 148.096H83.8639Z" fill="#95BF46"></path>
<path d="M87.546 149.667C87.5084 149.664 86.7142 149.605 86.7142 149.605C86.7142 149.605 86.1626 149.057 86.1021 148.997C86.0794 148.974 86.0488 148.963 86.0169 148.958L85.5713 158.072L88.7643 157.382C88.7643 157.382 87.6433 149.803 87.6362 149.751C87.6291 149.699 87.5836 149.67 87.546 149.667Z" fill="#5E8E3E"></path>
<path d="M84.4869 151.431L84.0932 152.603C84.0932 152.603 83.7482 152.418 83.3253 152.418C82.7054 152.418 82.6742 152.808 82.6742 152.906C82.6742 153.44 84.0686 153.645 84.0686 154.898C84.0686 155.884 83.4433 156.519 82.6003 156.519C81.5886 156.519 81.0713 155.889 81.0713 155.889L81.3422 154.994C81.3422 154.994 81.874 155.451 82.3227 155.451C82.6159 155.451 82.7352 155.22 82.7352 155.051C82.7352 154.354 81.5912 154.322 81.5912 153.176C81.5912 152.211 82.2838 151.277 83.682 151.277C84.2208 151.277 84.4869 151.431 84.4869 151.431Z" fill="white"></path>
</g>
<rect x="75.7888" y="144.465" width="16.8787" height="16.8787" rx="3.2459" stroke="#5B73DF" stroke-opacity="0.2" stroke-width="1.29836"></rect>
<path d="M102.293 157.905V148.105H106.045C108.005 148.105 109.307 149.281 109.307 151.115C109.307 152.487 108.481 153.551 107.221 153.901L109.419 157.905H108.047L105.975 154.139H103.511V157.905H102.293ZM105.961 149.225H103.511V153.019H105.947C107.235 153.019 108.061 152.263 108.061 151.115C108.061 149.967 107.235 149.225 105.961 149.225ZM113.604 157.989C111.462 157.989 110.062 156.519 110.062 154.335C110.062 152.165 111.434 150.681 113.45 150.681C115.466 150.681 116.782 151.955 116.838 154.069C116.838 154.223 116.824 154.391 116.81 154.559H111.266V154.657C111.308 156.015 112.162 156.967 113.52 156.967C114.528 156.967 115.312 156.435 115.55 155.511H116.712C116.432 156.939 115.256 157.989 113.604 157.989ZM111.336 153.607H115.606C115.494 152.375 114.654 151.689 113.464 151.689C112.414 151.689 111.448 152.445 111.336 153.607ZM118.598 156.043V151.815H117.31V150.765H118.598V148.763H119.746V150.765H121.594V151.815H119.746V156.029C119.746 156.631 119.956 156.855 120.572 156.855H121.706V157.905H120.46C119.088 157.905 118.598 157.303 118.598 156.043ZM127.699 154.335V150.765H128.847V157.905H127.853L127.699 156.953C127.279 157.485 126.593 157.989 125.417 157.989C123.849 157.989 122.603 157.107 122.603 154.741V150.765H123.751V154.671C123.751 156.155 124.423 156.939 125.613 156.939C126.915 156.939 127.699 155.945 127.699 154.335ZM133.716 150.765H134.038V151.885H133.464C131.966 151.885 131.56 153.131 131.56 154.265V157.905H130.412V150.765H131.406L131.56 151.843C131.896 151.297 132.442 150.765 133.716 150.765ZM138.533 150.681C140.143 150.681 141.417 151.563 141.417 153.929V157.905H140.269V153.999C140.269 152.515 139.583 151.731 138.337 151.731C136.993 151.731 136.181 152.725 136.181 154.335V157.905H135.033V150.765H136.027L136.181 151.731C136.601 151.185 137.329 150.681 138.533 150.681ZM142.587 155.553H143.763C143.805 156.393 144.547 157.009 145.737 157.009C146.745 157.009 147.459 156.575 147.459 155.917C147.459 155.021 146.675 154.951 145.611 154.825C144.015 154.629 142.741 154.307 142.741 152.823C142.741 151.521 143.931 150.667 145.541 150.681C147.165 150.695 148.341 151.451 148.453 152.935H147.277C147.193 152.207 146.521 151.661 145.541 151.661C144.547 151.661 143.875 152.081 143.875 152.739C143.875 153.523 144.631 153.621 145.667 153.747C147.291 153.943 148.593 154.251 148.593 155.833C148.593 157.163 147.319 157.989 145.737 157.989C143.889 157.989 142.615 157.121 142.587 155.553Z" fill="#C3BFFF"></path>
<rect x="67.8431" y="138.388" width="91.2626" height="29.6035" rx="3.40162" stroke="#918AFF" stroke-opacity="0.5" stroke-width="0.986926"></rect>
<rect x="-0.493463" y="0.493463" width="378.134" height="227.193" rx="5.50654" transform="matrix(-1 0 0 1 430.858 81.4353)" stroke="#6262E7" stroke-width="0.986926"></rect>
<rect x="-0.493463" y="0.493463" width="226.261" height="266.475" rx="5.50654" transform="matrix(-1 0 0 1 672.733 42.1534)" fill="url(#paint12_linear_742_14264)"></rect>
<path d="M463.739 77.7338V62.3338H466.159L471.615 75.1158L477.005 62.3338H479.381V77.7338H477.511V65.5898L472.407 77.7338H470.713L465.609 65.5898V77.7338H463.739ZM487.272 77.8658C483.906 77.8658 481.706 75.5558 481.706 72.1238C481.706 68.7138 483.862 66.3818 487.03 66.3818C490.198 66.3818 492.266 68.3838 492.354 71.7058C492.354 71.9478 492.332 72.2118 492.31 72.4758H483.598V72.6298C483.664 74.7638 485.006 76.2598 487.14 76.2598C488.724 76.2598 489.956 75.4238 490.33 73.9718H492.156C491.716 76.2158 489.868 77.8658 487.272 77.8658ZM483.708 70.9798H490.418C490.242 69.0438 488.922 67.9658 487.052 67.9658C485.402 67.9658 483.884 69.1538 483.708 70.9798ZM495.12 74.8078V68.1638H493.096V66.5138H495.12V63.3678H496.924V66.5138H499.828V68.1638H496.924V74.7858C496.924 75.7318 497.254 76.0838 498.222 76.0838H500.004V77.7338H498.046C495.89 77.7338 495.12 76.7878 495.12 74.8078ZM506.759 66.5138H507.265V68.2738H506.363C504.009 68.2738 503.371 70.2318 503.371 72.0138V77.7338H501.567V66.5138H503.129L503.371 68.2078C503.899 67.3498 504.757 66.5138 506.759 66.5138ZM509.753 64.6218C509.093 64.6218 508.587 64.1378 508.587 63.4558C508.587 62.7738 509.093 62.2898 509.753 62.2898C510.413 62.2898 510.919 62.7738 510.919 63.4558C510.919 64.1378 510.413 64.6218 509.753 64.6218ZM508.829 77.7338V66.5138H510.633V77.7338H508.829ZM518.142 77.8658C514.864 77.8658 512.708 75.6438 512.708 72.1458C512.708 68.7138 514.93 66.3818 518.186 66.3818C520.936 66.3818 522.674 67.9218 523.136 70.3858H521.244C520.914 68.8898 519.814 67.9878 518.164 67.9878C516.008 67.9878 514.556 69.7038 514.556 72.1458C514.556 74.5878 516.008 76.2598 518.164 76.2598C519.77 76.2598 520.87 75.3358 521.222 73.9058H523.136C522.696 76.3258 520.87 77.8658 518.142 77.8658ZM524.652 74.0378H526.5C526.566 75.3578 527.732 76.3258 529.602 76.3258C531.186 76.3258 532.308 75.6438 532.308 74.6098C532.308 73.2018 531.076 73.0918 529.404 72.8938C526.896 72.5858 524.894 72.0798 524.894 69.7478C524.894 67.7018 526.764 66.3598 529.294 66.3818C531.846 66.4038 533.694 67.5918 533.87 69.9238H532.022C531.89 68.7798 530.834 67.9218 529.294 67.9218C527.732 67.9218 526.676 68.5818 526.676 69.6158C526.676 70.8478 527.864 71.0018 529.492 71.1998C532.044 71.5078 534.09 71.9918 534.09 74.4778C534.09 76.5678 532.088 77.8658 529.602 77.8658C526.698 77.8658 524.696 76.5018 524.652 74.0378Z" fill="white"></path>
<rect x="462.052" y="93.1206" width="196.088" height="38.9508" rx="3.89508" fill="#2D2A67" fill-opacity="0.3"></rect>
<rect x="472.438" y="103.508" width="18.177" height="18.177" rx="3.89508" fill="#8B85FE" fill-opacity="0.46"></rect>
<mask id="mask4_742_14264" style="mask-type:alpha" maskUnits="userSpaceOnUse" x="476" y="107" width="11" height="11">
<rect x="476.334" y="107.403" width="10.3869" height="10.3869" rx="5.19344" fill="#C4C4C4"></rect>
</mask>
<g mask="url(#mask4_742_14264)">
</g>
<g clip-path="url(#clip4_742_14264)">
<path d="M484.935 109.442C484.928 109.39 484.883 109.362 484.845 109.358C484.807 109.355 484.013 109.296 484.013 109.296C484.013 109.296 483.462 108.749 483.401 108.688C483.34 108.628 483.222 108.646 483.176 108.66C483.169 108.662 483.056 108.697 482.868 108.755C482.683 108.225 482.358 107.737 481.786 107.737C481.77 107.737 481.754 107.738 481.738 107.739C481.575 107.524 481.373 107.43 481.199 107.43C479.867 107.43 479.23 109.096 479.03 109.943C478.512 110.103 478.145 110.217 478.098 110.232C477.809 110.323 477.799 110.332 477.761 110.604C477.733 110.811 476.977 116.66 476.977 116.66L482.87 117.764L486.063 117.073C486.063 117.073 484.942 109.494 484.935 109.442H484.935ZM482.542 108.856L482.043 109.01C482.043 108.975 482.043 108.94 482.043 108.902C482.043 108.573 481.998 108.308 481.924 108.097C482.219 108.134 482.415 108.47 482.542 108.856ZM481.559 108.163C481.641 108.368 481.694 108.663 481.694 109.06C481.694 109.081 481.694 109.099 481.694 109.118C481.369 109.219 481.017 109.328 480.664 109.437C480.862 108.672 481.234 108.302 481.559 108.163ZM481.163 107.788C481.22 107.788 481.278 107.807 481.334 107.845C480.907 108.046 480.449 108.553 480.255 109.563L479.441 109.816C479.668 109.045 480.205 107.788 481.163 107.788H481.163Z" fill="#95BF46"></path>
<path d="M484.845 109.358C484.807 109.355 484.013 109.296 484.013 109.296C484.013 109.296 483.461 108.749 483.401 108.688C483.378 108.666 483.348 108.654 483.316 108.649L482.87 117.764L486.063 117.073C486.063 117.073 484.942 109.494 484.935 109.442C484.928 109.39 484.882 109.362 484.845 109.358Z" fill="#5E8E3E"></path>
<path d="M481.786 111.123L481.392 112.294C481.392 112.294 481.047 112.11 480.624 112.11C480.004 112.11 479.973 112.499 479.973 112.597C479.973 113.132 481.367 113.337 481.367 114.59C481.367 115.576 480.742 116.21 479.899 116.21C478.887 116.21 478.37 115.581 478.37 115.581L478.641 114.686C478.641 114.686 479.173 115.142 479.622 115.142C479.915 115.142 480.034 114.912 480.034 114.743C480.034 114.045 478.89 114.014 478.89 112.867C478.89 111.902 479.583 110.969 480.981 110.969C481.52 110.969 481.786 111.123 481.786 111.123Z" fill="white"></path>
</g>
<rect x="473.088" y="104.157" width="16.8787" height="16.8787" rx="3.2459" stroke="#5B73DF" stroke-opacity="0.2" stroke-width="1.29836"></rect>
<path d="M499.456 114.39H500.716C500.814 115.706 501.836 116.574 503.334 116.574C504.65 116.574 505.588 115.972 505.588 114.908C505.588 113.69 504.384 113.438 502.9 113.186C501.318 112.92 499.694 112.402 499.694 110.498C499.694 108.832 501.052 107.712 503.04 107.712C505.224 107.712 506.568 108.93 506.68 110.694H505.42C505.28 109.56 504.37 108.818 503.04 108.818C501.766 108.818 500.912 109.378 500.912 110.428C500.912 111.604 502.102 111.842 503.572 112.094C505.168 112.36 506.806 112.892 506.806 114.796C506.806 116.49 505.378 117.68 503.32 117.68C500.926 117.68 499.526 116.322 499.456 114.39ZM511.684 110.372C513.28 110.372 514.582 111.254 514.582 113.62V117.596H513.434V113.69C513.434 112.206 512.72 111.422 511.488 111.422C510.158 111.422 509.332 112.416 509.332 114.026V117.596H508.184V107.796H509.332V111.632C509.752 110.96 510.48 110.372 511.684 110.372ZM519.254 117.68C517.168 117.68 515.712 116.196 515.712 114.026C515.712 111.856 517.168 110.372 519.254 110.372C521.34 110.372 522.796 111.856 522.796 114.026C522.796 116.196 521.34 117.68 519.254 117.68ZM519.254 116.658C520.668 116.658 521.62 115.552 521.62 114.026C521.62 112.5 520.668 111.394 519.254 111.394C517.84 111.394 516.888 112.5 516.888 114.026C516.888 115.552 517.84 116.658 519.254 116.658ZM527.71 110.372C529.684 110.372 531.14 111.702 531.14 114.026C531.14 116.21 529.684 117.68 527.71 117.68C526.506 117.68 525.694 117.19 525.26 116.504V120.396H524.112V110.456H525.106L525.26 111.604C525.736 110.946 526.506 110.372 527.71 110.372ZM527.598 116.658C529.012 116.658 529.964 115.58 529.964 114.026C529.964 112.472 529.012 111.394 527.598 111.394C526.198 111.394 525.246 112.472 525.246 113.998C525.246 115.566 526.198 116.658 527.598 116.658ZM533.04 109.252C532.62 109.252 532.298 108.944 532.298 108.51C532.298 108.076 532.62 107.768 533.04 107.768C533.46 107.768 533.782 108.076 533.782 108.51C533.782 108.944 533.46 109.252 533.04 109.252ZM532.452 117.596V110.456H533.6V117.596H532.452ZM534.417 111.506V110.456H535.705V109.658C535.705 108.398 536.237 107.796 537.567 107.796H538.869V108.846H537.637C537.063 108.846 536.853 109.084 536.853 109.63V110.456H538.869V111.506H536.853V117.596H535.705V111.506H534.417ZM541.866 117.638L539.08 110.456H540.298L542.496 116.154L544.624 110.456H545.842L542.552 118.8C542.104 119.948 541.838 120.396 540.83 120.396H539.458V119.346H540.48C541.138 119.346 541.25 119.178 541.516 118.506L541.866 117.638Z" fill="#C3BFFF"></path>
<rect x="603.608" y="103.508" width="18.177" height="18.177" rx="9.08852" fill="#8B85FE" fill-opacity="0.46"></rect>
<path d="M609.752 115.121V113.979L613.148 109.117H614.841V113.854H615.756V115.121H614.841V116.596H613.387V115.121H609.752ZM613.481 110.675L611.351 113.854H613.481V110.675Z" fill="#C3BFFF"></path>
<rect x="602.959" y="102.858" width="19.4754" height="19.4754" rx="9.7377" stroke="#5B73DF" stroke-opacity="0.2" stroke-width="1.29836"></rect>
<rect x="647.753" y="121.685" width="18.177" height="18.177" rx="5.19344" transform="rotate(-180 647.753 121.685)" fill="#8B85FE" fill-opacity="0.46"></rect>
<path d="M635.472 111.692L638.218 114.406C638.278 114.466 638.349 114.514 638.427 114.546C638.505 114.579 638.588 114.596 638.673 114.596C638.758 114.596 638.841 114.579 638.919 114.546C638.997 114.514 639.068 114.466 639.128 114.406L641.842 111.692C641.902 111.632 641.95 111.561 641.982 111.483C642.015 111.405 642.031 111.322 642.031 111.237C642.031 111.153 642.015 111.069 641.982 110.991C641.95 110.913 641.902 110.842 641.842 110.783C641.722 110.663 641.56 110.597 641.391 110.597C641.221 110.597 641.059 110.663 640.939 110.783L638.673 113.049L636.407 110.783C636.288 110.664 636.127 110.598 635.959 110.597C635.874 110.597 635.791 110.613 635.713 110.645C635.635 110.676 635.564 110.723 635.504 110.783C635.442 110.84 635.392 110.909 635.357 110.986C635.321 111.063 635.302 111.146 635.299 111.231C635.296 111.315 635.309 111.399 635.339 111.479C635.369 111.558 635.414 111.63 635.472 111.692Z" fill="#C3BFFF"></path>
<rect x="647.104" y="121.035" width="16.8787" height="16.8787" rx="4.54426" transform="rotate(-180 647.104 121.035)" stroke="#5B73DF" stroke-opacity="0.2" stroke-width="1.29836"></rect>
<rect x="462.701" y="93.7698" width="194.789" height="37.6524" rx="3.2459" stroke="#5B73DF" stroke-opacity="0.2" stroke-width="1.29836"></rect>
<rect x="462.052" y="142.458" width="196.088" height="38.9508" rx="3.89508" fill="#2D2A67" fill-opacity="0.3"></rect>
<rect x="472.438" y="152.845" width="18.177" height="18.177" rx="3.89508" fill="#8B85FE" fill-opacity="0.46"></rect>
<mask id="mask5_742_14264" style="mask-type:alpha" maskUnits="userSpaceOnUse" x="476" y="156" width="11" height="12">
<rect x="476.334" y="156.74" width="10.3869" height="10.3869" rx="5.19344" fill="#C4C4C4"></rect>
</mask>
<g mask="url(#mask5_742_14264)">
</g>
<g clip-path="url(#clip5_742_14264)">
<path d="M480.152 158.168L476.979 163.665L479.727 165.252L482.901 159.755L480.152 158.168Z" fill="#FBBC04"></path>
<path d="M486.075 163.664L482.901 158.167C482.463 157.408 481.492 157.148 480.733 157.586C479.974 158.025 479.714 158.995 480.152 159.754L483.326 165.251C483.764 166.01 484.735 166.27 485.494 165.832C486.253 165.394 486.513 164.423 486.075 163.664Z" fill="#4285F4"></path>
<path d="M478.354 166.045C479.231 166.045 479.941 165.334 479.941 164.458C479.941 163.582 479.231 162.871 478.354 162.871C477.478 162.871 476.768 163.582 476.768 164.458C476.768 165.334 477.478 166.045 478.354 166.045Z" fill="#34A853"></path>
</g>
<rect x="473.088" y="153.494" width="16.8787" height="16.8787" rx="3.2459" stroke="#5B73DF" stroke-opacity="0.2" stroke-width="1.29836"></rect>
<path d="M503.829 167.018C501.113 167.018 499.223 165.002 499.223 162.034C499.223 159.066 501.057 157.05 503.899 157.05C506.069 157.05 507.707 158.31 508.043 160.326H506.741C506.405 158.968 505.355 158.17 503.871 158.17C501.813 158.17 500.469 159.766 500.469 162.034C500.469 164.302 501.813 165.898 503.843 165.898C505.649 165.898 506.951 164.82 506.951 163.084V162.748H504.011V161.628H508.141V166.934H507.091L507.007 165.506C506.559 166.22 505.509 167.018 503.829 167.018ZM513.168 167.018C511.082 167.018 509.626 165.534 509.626 163.364C509.626 161.194 511.082 159.71 513.168 159.71C515.254 159.71 516.71 161.194 516.71 163.364C516.71 165.534 515.254 167.018 513.168 167.018ZM513.168 165.996C514.582 165.996 515.534 164.89 515.534 163.364C515.534 161.838 514.582 160.732 513.168 160.732C511.754 160.732 510.802 161.838 510.802 163.364C510.802 164.89 511.754 165.996 513.168 165.996ZM521.316 167.018C519.23 167.018 517.774 165.534 517.774 163.364C517.774 161.194 519.23 159.71 521.316 159.71C523.402 159.71 524.858 161.194 524.858 163.364C524.858 165.534 523.402 167.018 521.316 167.018ZM521.316 165.996C522.73 165.996 523.682 164.89 523.682 163.364C523.682 161.838 522.73 160.732 521.316 160.732C519.902 160.732 518.95 161.838 518.95 163.364C518.95 164.89 519.902 165.996 521.316 165.996ZM531.803 161.026L531.957 159.794H532.951V166.584C532.951 168.642 531.859 169.818 529.409 169.818C527.589 169.818 526.315 168.964 526.133 167.396H527.309C527.505 168.292 528.303 168.796 529.493 168.796C530.991 168.796 531.803 168.096 531.803 166.542V165.702C531.327 166.514 530.557 167.018 529.353 167.018C527.379 167.018 525.923 165.688 525.923 163.364C525.923 161.18 527.379 159.71 529.353 159.71C530.557 159.71 531.355 160.228 531.803 161.026ZM529.465 165.996C530.865 165.996 531.817 164.918 531.817 163.392C531.817 161.824 530.865 160.732 529.465 160.732C528.051 160.732 527.099 161.81 527.099 163.364C527.099 164.918 528.051 165.996 529.465 165.996ZM534.514 166.934V157.134H535.662V166.934H534.514ZM540.525 167.018C538.383 167.018 536.983 165.548 536.983 163.364C536.983 161.194 538.355 159.71 540.371 159.71C542.387 159.71 543.703 160.984 543.759 163.098C543.759 163.252 543.745 163.42 543.731 163.588H538.187V163.686C538.229 165.044 539.083 165.996 540.441 165.996C541.449 165.996 542.233 165.464 542.471 164.54H543.633C543.353 165.968 542.177 167.018 540.525 167.018ZM538.257 162.636H542.527C542.415 161.404 541.575 160.718 540.385 160.718C539.335 160.718 538.369 161.474 538.257 162.636ZM549.363 166.934H548.103L551.841 157.134H553.283L557.007 166.934H555.705L554.669 164.288H550.399L549.363 166.934ZM552.527 158.464L550.763 163.182H554.305L552.527 158.464ZM563.262 160.886V157.134H564.41V166.934H563.416L563.262 165.786C562.786 166.444 562.016 167.018 560.812 167.018C558.838 167.018 557.382 165.688 557.382 163.364C557.382 161.18 558.838 159.71 560.812 159.71C562.016 159.71 562.828 160.2 563.262 160.886ZM560.924 165.996C562.324 165.996 563.276 164.918 563.276 163.392C563.276 161.824 562.324 160.732 560.924 160.732C559.51 160.732 558.558 161.81 558.558 163.364C558.558 164.918 559.51 165.996 560.924 165.996ZM565.679 164.582H566.855C566.897 165.422 567.639 166.038 568.829 166.038C569.837 166.038 570.551 165.604 570.551 164.946C570.551 164.05 569.767 163.98 568.703 163.854C567.107 163.658 565.833 163.336 565.833 161.852C565.833 160.55 567.023 159.696 568.633 159.71C570.257 159.724 571.433 160.48 571.545 161.964H570.369C570.285 161.236 569.613 160.69 568.633 160.69C567.639 160.69 566.967 161.11 566.967 161.768C566.967 162.552 567.723 162.65 568.759 162.776C570.383 162.972 571.685 163.28 571.685 164.862C571.685 166.192 570.411 167.018 568.829 167.018C566.981 167.018 565.707 166.15 565.679 164.582Z" fill="#C3BFFF"></path>
<rect x="629.575" y="152.845" width="18.177" height="18.177" rx="5.19344" fill="#8B85FE" fill-opacity="0.46"></rect>
<path d="M641.857 162.838L639.111 160.124C639.051 160.064 638.98 160.016 638.902 159.983C638.824 159.951 638.741 159.934 638.656 159.934C638.572 159.934 638.488 159.951 638.41 159.983C638.332 160.016 638.261 160.064 638.202 160.124L635.487 162.838C635.427 162.897 635.38 162.968 635.347 163.046C635.315 163.124 635.298 163.208 635.298 163.292C635.298 163.377 635.315 163.461 635.347 163.539C635.38 163.617 635.427 163.687 635.487 163.747C635.607 163.866 635.769 163.933 635.939 163.933C636.108 163.933 636.27 163.866 636.39 163.747L638.656 161.481L640.922 163.747C641.042 163.865 641.203 163.932 641.37 163.933C641.455 163.933 641.538 163.917 641.616 163.885C641.694 163.853 641.765 163.806 641.825 163.747C641.887 163.69 641.937 163.621 641.973 163.544C642.008 163.467 642.028 163.384 642.031 163.299C642.034 163.215 642.02 163.13 641.99 163.051C641.96 162.972 641.915 162.9 641.857 162.838Z" fill="#C3BFFF"></path>
<rect x="630.224" y="153.494" width="16.8787" height="16.8787" rx="4.54426" stroke="#5B73DF" stroke-opacity="0.2" stroke-width="1.29836"></rect>
<rect x="462.701" y="143.107" width="194.789" height="37.6524" rx="3.2459" stroke="#5B73DF" stroke-opacity="0.2" stroke-width="1.29836"></rect>
<rect x="462.052" y="191.796" width="196.088" height="38.9508" rx="3.89508" fill="#2D2A67" fill-opacity="0.3"></rect>
<rect x="472.438" y="202.183" width="18.177" height="18.177" rx="3.89508" fill="#8B85FE" fill-opacity="0.46"></rect>
<mask id="mask6_742_14264" style="mask-type:alpha" maskUnits="userSpaceOnUse" x="476" y="206" width="11" height="11">
<rect x="476.334" y="206.078" width="10.3869" height="10.3869" rx="5.19344" fill="#C4C4C4"></rect>
</mask>
<g mask="url(#mask6_742_14264)">
</g>
<g clip-path="url(#clip6_742_14264)">
<path d="M483.322 207.733V214.874C483.322 215.673 483.874 216.119 484.458 216.119C484.999 216.119 485.594 215.74 485.594 214.874V207.788C485.594 207.055 485.053 206.597 484.458 206.597C483.863 206.597 483.322 207.102 483.322 207.733Z" fill="#F9AB00"></path>
<path d="M480.348 211.358V214.874C480.348 215.673 480.899 216.119 481.484 216.119C482.025 216.119 482.62 215.74 482.62 214.874V211.412C482.62 210.68 482.079 210.222 481.484 210.222C480.889 210.222 480.348 210.727 480.348 211.358Z" fill="#E37400"></path>
<path d="M478.508 216.119C479.136 216.119 479.644 215.61 479.644 214.983C479.644 214.355 479.136 213.846 478.508 213.846C477.881 213.846 477.372 214.355 477.372 214.983C477.372 215.61 477.881 216.119 478.508 216.119Z" fill="#E37400"></path>
</g>
<rect x="473.088" y="202.832" width="16.8787" height="16.8787" rx="3.2459" stroke="#5B73DF" stroke-opacity="0.2" stroke-width="1.29836"></rect>
<path d="M503.764 216.355C501.048 216.355 499.158 214.339 499.158 211.371C499.158 208.403 500.992 206.387 503.834 206.387C506.004 206.387 507.642 207.647 507.978 209.663H506.676C506.34 208.305 505.29 207.507 503.806 207.507C501.748 207.507 500.404 209.103 500.404 211.371C500.404 213.639 501.748 215.235 503.778 215.235C505.584 215.235 506.886 214.157 506.886 212.421V212.085H503.946V210.965H508.076V216.271H507.026L506.942 214.843C506.494 215.557 505.444 216.355 503.764 216.355ZM513.103 216.355C511.017 216.355 509.561 214.871 509.561 212.701C509.561 210.531 511.017 209.047 513.103 209.047C515.189 209.047 516.645 210.531 516.645 212.701C516.645 214.871 515.189 216.355 513.103 216.355ZM513.103 215.333C514.517 215.333 515.469 214.227 515.469 212.701C515.469 211.175 514.517 210.069 513.103 210.069C511.689 210.069 510.737 211.175 510.737 212.701C510.737 214.227 511.689 215.333 513.103 215.333ZM521.252 216.355C519.166 216.355 517.71 214.871 517.71 212.701C517.71 210.531 519.166 209.047 521.252 209.047C523.338 209.047 524.794 210.531 524.794 212.701C524.794 214.871 523.338 216.355 521.252 216.355ZM521.252 215.333C522.666 215.333 523.618 214.227 523.618 212.701C523.618 211.175 522.666 210.069 521.252 210.069C519.838 210.069 518.886 211.175 518.886 212.701C518.886 214.227 519.838 215.333 521.252 215.333ZM531.738 210.363L531.892 209.131H532.886V215.921C532.886 217.979 531.794 219.155 529.344 219.155C527.524 219.155 526.25 218.301 526.068 216.733H527.244C527.44 217.629 528.238 218.133 529.428 218.133C530.926 218.133 531.738 217.433 531.738 215.879V215.039C531.262 215.851 530.492 216.355 529.288 216.355C527.314 216.355 525.858 215.025 525.858 212.701C525.858 210.517 527.314 209.047 529.288 209.047C530.492 209.047 531.29 209.565 531.738 210.363ZM529.4 215.333C530.8 215.333 531.752 214.255 531.752 212.729C531.752 211.161 530.8 210.069 529.4 210.069C527.986 210.069 527.034 211.147 527.034 212.701C527.034 214.255 527.986 215.333 529.4 215.333ZM534.45 216.271V206.471H535.598V216.271H534.45ZM540.461 216.355C538.319 216.355 536.919 214.885 536.919 212.701C536.919 210.531 538.291 209.047 540.307 209.047C542.323 209.047 543.639 210.321 543.695 212.435C543.695 212.589 543.681 212.757 543.667 212.925H538.123V213.023C538.165 214.381 539.019 215.333 540.377 215.333C541.385 215.333 542.169 214.801 542.407 213.877H543.569C543.289 215.305 542.113 216.355 540.461 216.355ZM538.193 211.973H542.463C542.351 210.741 541.511 210.055 540.321 210.055C539.271 210.055 538.305 210.811 538.193 211.973ZM549.299 216.271H548.039L551.777 206.471H553.219L556.943 216.271H555.641L554.605 213.625H550.335L549.299 216.271ZM552.463 207.801L550.699 212.519H554.241L552.463 207.801ZM561.384 209.047C562.994 209.047 564.268 209.929 564.268 212.295V216.271H563.12V212.365C563.12 210.881 562.434 210.097 561.188 210.097C559.844 210.097 559.032 211.091 559.032 212.701V216.271H557.884V209.131H558.878L559.032 210.097C559.452 209.551 560.18 209.047 561.384 209.047ZM572.045 215.221H572.409V216.271H571.779C570.827 216.271 570.505 215.865 570.491 215.165C570.043 215.809 569.329 216.355 568.097 216.355C566.529 216.355 565.465 215.571 565.465 214.269C565.465 212.841 566.459 212.043 568.335 212.043H570.435V211.553C570.435 210.629 569.777 210.069 568.657 210.069C567.649 210.069 566.977 210.545 566.837 211.273H565.689C565.857 209.873 566.991 209.047 568.713 209.047C570.533 209.047 571.583 209.957 571.583 211.623V214.745C571.583 215.123 571.723 215.221 572.045 215.221ZM570.435 213.359V213.009H568.223C567.201 213.009 566.627 213.387 566.627 214.199C566.627 214.899 567.229 215.375 568.181 215.375C569.609 215.375 570.435 214.549 570.435 213.359ZM573.292 216.271V206.471H574.44V216.271H573.292ZM578.085 216.313L575.299 209.131H576.517L578.715 214.829L580.843 209.131H582.061L578.771 217.475C578.323 218.623 578.057 219.071 577.049 219.071H575.677V218.021H576.699C577.357 218.021 577.469 217.853 577.735 217.181L578.085 216.313ZM583.572 214.409V210.181H582.284V209.131H583.572V207.129H584.72V209.131H586.568V210.181H584.72V214.395C584.72 214.997 584.93 215.221 585.546 215.221H586.68V216.271H585.434C584.062 216.271 583.572 215.669 583.572 214.409ZM588.263 207.927C587.843 207.927 587.521 207.619 587.521 207.185C587.521 206.751 587.843 206.443 588.263 206.443C588.683 206.443 589.005 206.751 589.005 207.185C589.005 207.619 588.683 207.927 588.263 207.927ZM587.675 216.271V209.131H588.823V216.271H587.675ZM593.601 216.355C591.515 216.355 590.143 214.941 590.143 212.715C590.143 210.531 591.557 209.047 593.629 209.047C595.379 209.047 596.485 210.027 596.779 211.595H595.575C595.365 210.643 594.665 210.069 593.615 210.069C592.243 210.069 591.319 211.161 591.319 212.715C591.319 214.269 592.243 215.333 593.615 215.333C594.637 215.333 595.337 214.745 595.561 213.835H596.779C596.499 215.375 595.337 216.355 593.601 216.355ZM597.744 213.919H598.92C598.962 214.759 599.704 215.375 600.894 215.375C601.902 215.375 602.616 214.941 602.616 214.283C602.616 213.387 601.832 213.317 600.768 213.191C599.172 212.995 597.898 212.673 597.898 211.189C597.898 209.887 599.088 209.033 600.698 209.047C602.322 209.061 603.498 209.817 603.61 211.301H602.434C602.35 210.573 601.678 210.027 600.698 210.027C599.704 210.027 599.032 210.447 599.032 211.105C599.032 211.889 599.788 211.987 600.824 212.113C602.448 212.309 603.75 212.617 603.75 214.199C603.75 215.529 602.476 216.355 600.894 216.355C599.046 216.355 597.772 215.487 597.744 213.919Z" fill="#C3BFFF"></path>
<rect x="647.752" y="220.36" width="18.177" height="18.177" rx="5.19344" transform="rotate(-180 647.752 220.36)" fill="#8B85FE" fill-opacity="0.46"></rect>
<path d="M635.47 210.367L638.217 213.082C638.276 213.142 638.347 213.189 638.425 213.222C638.503 213.254 638.587 213.271 638.671 213.271C638.756 213.271 638.839 213.254 638.917 213.222C638.995 213.189 639.066 213.142 639.126 213.082L641.84 210.367C641.9 210.308 641.948 210.237 641.98 210.159C642.013 210.081 642.029 209.997 642.029 209.913C642.029 209.828 642.013 209.745 641.98 209.667C641.948 209.589 641.9 209.518 641.84 209.458C641.72 209.339 641.558 209.272 641.389 209.272C641.219 209.272 641.057 209.339 640.937 209.458L638.671 211.725L636.405 209.458C636.286 209.34 636.125 209.273 635.957 209.273C635.872 209.272 635.789 209.288 635.711 209.32C635.633 209.352 635.562 209.399 635.502 209.458C635.44 209.516 635.39 209.585 635.355 209.662C635.319 209.738 635.3 209.822 635.297 209.906C635.294 209.991 635.307 210.075 635.337 210.154C635.367 210.233 635.412 210.306 635.47 210.367Z" fill="#C3BFFF"></path>
<rect x="647.103" y="219.711" width="16.8787" height="16.8787" rx="4.54426" transform="rotate(-180 647.103 219.711)" stroke="#5B73DF" stroke-opacity="0.2" stroke-width="1.29836"></rect>
<rect x="462.701" y="192.445" width="194.789" height="37.6524" rx="3.2459" stroke="#5B73DF" stroke-opacity="0.2" stroke-width="1.29836"></rect>
<rect x="462.052" y="241.134" width="196.088" height="38.9508" rx="3.89508" fill="#2D2A67" fill-opacity="0.3"></rect>
<rect x="472.438" y="251.521" width="18.177" height="18.177" rx="3.89508" fill="#8B85FE" fill-opacity="0.46"></rect>
<mask id="mask7_742_14264" style="mask-type:alpha" maskUnits="userSpaceOnUse" x="476" y="255" width="11" height="11">
<rect x="476.334" y="255.416" width="10.3869" height="10.3869" rx="5.19344" fill="#C4C4C4"></rect>
</mask>
<g mask="url(#mask7_742_14264)">
</g>
<g clip-path="url(#clip7_742_14264)">
<path fill-rule="evenodd" clip-rule="evenodd" d="M476.333 260.609C476.333 263.177 478.208 265.312 480.661 265.745L480.69 265.722C480.68 265.72 480.67 265.718 480.66 265.716V262.052H479.362V260.609H480.66V259.455C480.66 258.157 481.497 257.435 482.68 257.435C483.055 257.435 483.459 257.493 483.834 257.551V258.878H483.171C482.536 258.878 482.392 259.195 482.392 259.599V260.609H483.777L483.546 262.052H482.392V265.716C482.382 265.718 482.373 265.72 482.363 265.721L482.392 265.745C484.844 265.312 486.72 263.177 486.72 260.609C486.72 257.753 484.383 255.416 481.526 255.416C478.67 255.416 476.333 257.753 476.333 260.609Z" fill="url(#paint13_linear_742_14264)"></path>
</g>
<rect x="473.088" y="252.17" width="16.8787" height="16.8787" rx="3.2459" stroke="#5B73DF" stroke-opacity="0.2" stroke-width="1.29836"></rect>
<path d="M499.596 265.609V255.809H505.686V256.929H500.814V260.205H504.846V261.325H500.814V265.609H499.596ZM512.523 264.559H512.887V265.609H512.257C511.305 265.609 510.983 265.203 510.969 264.503C510.521 265.147 509.807 265.693 508.575 265.693C507.007 265.693 505.943 264.909 505.943 263.607C505.943 262.179 506.937 261.381 508.813 261.381H510.913V260.891C510.913 259.967 510.255 259.407 509.135 259.407C508.127 259.407 507.455 259.883 507.315 260.611H506.167C506.335 259.211 507.469 258.385 509.191 258.385C511.011 258.385 512.061 259.295 512.061 260.961V264.083C512.061 264.461 512.201 264.559 512.523 264.559ZM510.913 262.697V262.347H508.701C507.679 262.347 507.105 262.725 507.105 263.537C507.105 264.237 507.707 264.713 508.659 264.713C510.087 264.713 510.913 263.887 510.913 262.697ZM516.893 265.693C514.807 265.693 513.435 264.279 513.435 262.053C513.435 259.869 514.849 258.385 516.921 258.385C518.671 258.385 519.777 259.365 520.071 260.933H518.867C518.657 259.981 517.957 259.407 516.907 259.407C515.535 259.407 514.611 260.499 514.611 262.053C514.611 263.607 515.535 264.671 516.907 264.671C517.929 264.671 518.629 264.083 518.853 263.173H520.071C519.791 264.713 518.629 265.693 516.893 265.693ZM524.62 265.693C522.478 265.693 521.078 264.223 521.078 262.039C521.078 259.869 522.45 258.385 524.466 258.385C526.482 258.385 527.798 259.659 527.854 261.773C527.854 261.927 527.84 262.095 527.826 262.263H522.282V262.361C522.324 263.719 523.178 264.671 524.536 264.671C525.544 264.671 526.328 264.139 526.566 263.215H527.728C527.448 264.643 526.272 265.693 524.62 265.693ZM522.352 261.311H526.622C526.51 260.079 525.67 259.393 524.48 259.393C523.43 259.393 522.464 260.149 522.352 261.311ZM532.762 258.385C534.736 258.385 536.192 259.715 536.192 262.039C536.192 264.223 534.736 265.693 532.762 265.693C531.558 265.693 530.746 265.203 530.312 264.517L530.158 265.609H529.164V255.809H530.312V259.617C530.788 258.959 531.558 258.385 532.762 258.385ZM532.65 264.671C534.064 264.671 535.016 263.593 535.016 262.039C535.016 260.485 534.064 259.407 532.65 259.407C531.25 259.407 530.298 260.485 530.298 262.011C530.298 263.579 531.25 264.671 532.65 264.671ZM540.794 265.693C538.708 265.693 537.252 264.209 537.252 262.039C537.252 259.869 538.708 258.385 540.794 258.385C542.88 258.385 544.336 259.869 544.336 262.039C544.336 264.209 542.88 265.693 540.794 265.693ZM540.794 264.671C542.208 264.671 543.16 263.565 543.16 262.039C543.16 260.513 542.208 259.407 540.794 259.407C539.38 259.407 538.428 260.513 538.428 262.039C538.428 263.565 539.38 264.671 540.794 264.671ZM548.942 265.693C546.856 265.693 545.4 264.209 545.4 262.039C545.4 259.869 546.856 258.385 548.942 258.385C551.028 258.385 552.484 259.869 552.484 262.039C552.484 264.209 551.028 265.693 548.942 265.693ZM548.942 264.671C550.356 264.671 551.308 263.565 551.308 262.039C551.308 260.513 550.356 259.407 548.942 259.407C547.528 259.407 546.576 260.513 546.576 262.039C546.576 263.565 547.528 264.671 548.942 264.671ZM553.801 265.609V255.809H554.949V262.263L558.533 258.469H559.947L557.161 261.423L560.143 265.609H558.757L556.391 262.249L554.949 263.733V265.609H553.801Z" fill="#C3BFFF"></path>
<rect x="647.752" y="269.698" width="18.177" height="18.177" rx="5.19344" transform="rotate(-180 647.752 269.698)" fill="#8B85FE" fill-opacity="0.46"></rect>
<path d="M635.47 259.705L638.217 262.419C638.276 262.479 638.347 262.527 638.425 262.559C638.503 262.592 638.587 262.608 638.671 262.608C638.756 262.608 638.839 262.592 638.917 262.559C638.995 262.527 639.066 262.479 639.126 262.419L641.84 259.705C641.9 259.645 641.948 259.574 641.98 259.496C642.013 259.418 642.029 259.335 642.029 259.25C642.029 259.166 642.013 259.082 641.98 259.004C641.948 258.926 641.9 258.855 641.84 258.796C641.72 258.676 641.558 258.609 641.389 258.609C641.219 258.609 641.057 258.676 640.937 258.796L638.671 261.062L636.405 258.796C636.286 258.677 636.125 258.611 635.957 258.61C635.872 258.609 635.789 258.626 635.711 258.657C635.633 258.689 635.562 258.736 635.502 258.796C635.44 258.853 635.39 258.922 635.355 258.999C635.319 259.076 635.3 259.159 635.297 259.243C635.294 259.328 635.307 259.412 635.337 259.491C635.367 259.571 635.412 259.643 635.47 259.705Z" fill="#C3BFFF"></path>
<rect x="647.103" y="269.048" width="16.8787" height="16.8787" rx="4.54426" transform="rotate(-180 647.103 269.048)" stroke="#5B73DF" stroke-opacity="0.2" stroke-width="1.29836"></rect>
<rect x="462.701" y="241.783" width="194.789" height="37.6524" rx="3.2459" stroke="#5B73DF" stroke-opacity="0.2" stroke-width="1.29836"></rect>
<rect x="-0.493463" y="0.493463" width="226.261" height="266.475" rx="5.50654" transform="matrix(-1 0 0 1 672.733 42.1534)" stroke="#6262E7" stroke-width="0.986926"></rect>
<rect x="32.5725" y="22.0022" width="661.298" height="307.765" rx="12.6492" stroke="url(#paint14_linear_742_14264)" stroke-width="1.29836" shape-rendering="crispEdges"></rect>
</g>
<defs>
<filter id="filter0_dd_742_14264" x="0.762222" y="0.579274" width="724.919" height="371.384" filterUnits="userSpaceOnUse" color-interpolation-filters="sRGB">
<feFlood flood-opacity="0" result="BackgroundImageFix"></feFlood>
<feColorMatrix in="SourceAlpha" type="matrix" values="0 0 0 0 0 0 0 0 0 0 0 0 0 0 0 0 0 0 127 0" result="hardAlpha"></feColorMatrix>
<feOffset dy="2.59672"></feOffset>
<feGaussianBlur stdDeviation="2.59672"></feGaussianBlur>
<feComposite in2="hardAlpha" operator="out"></feComposite>
<feColorMatrix type="matrix" values="0 0 0 0 0.184314 0 0 0 0 0.160784 0 0 0 0 0.611765 0 0 0 0.12 0"></feColorMatrix>
<feBlend mode="normal" in2="BackgroundImageFix" result="effect1_dropShadow_742_14264"></feBlend>
<feColorMatrix in="SourceAlpha" type="matrix" values="0 0 0 0 0 0 0 0 0 0 0 0 0 0 0 0 0 0 127 0" result="hardAlpha"></feColorMatrix>
<feOffset dy="10.3869"></feOffset>
<feGaussianBlur stdDeviation="15.5803"></feGaussianBlur>
<feComposite in2="hardAlpha" operator="out"></feComposite>
<feColorMatrix type="matrix" values="0 0 0 0 0.184314 0 0 0 0 0.160784 0 0 0 0 0.611765 0 0 0 0.08 0"></feColorMatrix>
<feBlend mode="normal" in2="effect1_dropShadow_742_14264" result="effect2_dropShadow_742_14264"></feBlend>
<feBlend mode="normal" in="SourceGraphic" in2="effect2_dropShadow_742_14264" result="shape"></feBlend>
</filter>
<linearGradient id="paint0_linear_742_14264" x1="693.222" y1="22.6514" x2="1.01648" y2="210.349" gradientUnits="userSpaceOnUse">
<stop stop-color="#8B85FE" stop-opacity="0.31"></stop>
<stop offset="1" stop-color="#8B85FE" stop-opacity="0"></stop>
</linearGradient>
<linearGradient id="paint1_linear_742_14264" x1="0.0267211" y1="0.421072" x2="288.355" y2="312.487" gradientUnits="userSpaceOnUse">
<stop stop-color="#8B85FE" stop-opacity="0.31"></stop>
<stop offset="1" stop-color="#8B85FE" stop-opacity="0"></stop>
</linearGradient>
<linearGradient id="paint2_linear_742_14264" x1="367.156" y1="98.6586" x2="338.375" y2="102.282" gradientUnits="userSpaceOnUse">
<stop stop-color="#8B85FE" stop-opacity="0.31"></stop>
<stop offset="1" stop-color="#8B85FE" stop-opacity="0"></stop>
</linearGradient>
<linearGradient id="paint3_linear_742_14264" x1="354.172" y1="98.6586" x2="354.172" y2="124.626" gradientUnits="userSpaceOnUse">
<stop stop-color="#86ECC8"></stop>
<stop offset="0.500474" stop-color="#4998CD"></stop>
<stop offset="1" stop-color="#6262E7"></stop>
</linearGradient>
<linearGradient id="paint4_linear_742_14264" x1="333.398" y1="96.3468" x2="232.338" y2="140.959" gradientUnits="userSpaceOnUse">
<stop stop-color="#8B85FE" stop-opacity="0.31"></stop>
<stop offset="1" stop-color="#8B85FE" stop-opacity="0"></stop>
</linearGradient>
<linearGradient id="paint5_linear_742_14264" x1="218.356" y1="98.6586" x2="189.575" y2="102.282" gradientUnits="userSpaceOnUse">
<stop stop-color="#8B85FE" stop-opacity="0.31"></stop>
<stop offset="1" stop-color="#8B85FE" stop-opacity="0"></stop>
</linearGradient>
<linearGradient id="paint6_linear_742_14264" x1="205.372" y1="98.6586" x2="205.372" y2="124.626" gradientUnits="userSpaceOnUse">
<stop stop-color="#86ECC8"></stop>
<stop offset="0.500474" stop-color="#4998CD"></stop>
<stop offset="1" stop-color="#6262E7"></stop>
</linearGradient>
<linearGradient id="paint7_linear_742_14264" x1="184.599" y1="96.3468" x2="77.5247" y2="148.021" gradientUnits="userSpaceOnUse">
<stop stop-color="#8B85FE" stop-opacity="0.31"></stop>
<stop offset="1" stop-color="#8B85FE" stop-opacity="0"></stop>
</linearGradient>
<linearGradient id="paint8_linear_742_14264" x1="351.398" y1="137.894" x2="229.03" y2="213.57" gradientUnits="userSpaceOnUse">
<stop stop-color="#8B85FE" stop-opacity="0.31"></stop>
<stop offset="1" stop-color="#8B85FE" stop-opacity="0"></stop>
</linearGradient>
<linearGradient id="paint9_linear_742_14264" x1="193.356" y1="140.206" x2="164.575" y2="143.83" gradientUnits="userSpaceOnUse">
<stop stop-color="#8B85FE" stop-opacity="0.31"></stop>
<stop offset="1" stop-color="#8B85FE" stop-opacity="0"></stop>
</linearGradient>
<linearGradient id="paint10_linear_742_14264" x1="180.372" y1="140.206" x2="180.372" y2="166.174" gradientUnits="userSpaceOnUse">
<stop stop-color="#86ECC8"></stop>
<stop offset="0.500474" stop-color="#4998CD"></stop>
<stop offset="1" stop-color="#6262E7"></stop>
</linearGradient>
<linearGradient id="paint11_linear_742_14264" x1="159.599" y1="137.894" x2="68.822" y2="172.363" gradientUnits="userSpaceOnUse">
<stop stop-color="#8B85FE" stop-opacity="0.31"></stop>
<stop offset="1" stop-color="#8B85FE" stop-opacity="0"></stop>
</linearGradient>
<linearGradient id="paint12_linear_742_14264" x1="0.406689" y1="0.407308" x2="-13.761" y2="254.405" gradientUnits="userSpaceOnUse">
<stop stop-color="#8B85FE" stop-opacity="0.31"></stop>
<stop offset="1" stop-color="#8B85FE" stop-opacity="0"></stop>
</linearGradient>
<linearGradient id="paint13_linear_742_14264" x1="481.526" y1="265.443" x2="481.526" y2="255.416" gradientUnits="userSpaceOnUse">
<stop stop-color="#0062E0"></stop>
<stop offset="1" stop-color="#19AFFF"></stop>
</linearGradient>
<linearGradient id="paint14_linear_742_14264" x1="363.222" y1="22.6514" x2="363.222" y2="329.118" gradientUnits="userSpaceOnUse">
<stop stop-color="#86ECC8"></stop>
<stop offset="0.500474" stop-color="#4998CD"></stop>
<stop offset="1" stop-color="#6262E7"></stop>
</linearGradient>
<clipPath id="clip0_742_14264">
<rect width="9.34819" height="10.3869" fill="white" transform="translate(238.354 106.163)"></rect>
</clipPath>
<clipPath id="clip1_742_14264">
<rect width="9.34819" height="10.3869" fill="white" transform="translate(79.5547 106.163)"></rect>
</clipPath>
<clipPath id="clip2_742_14264">
<rect width="9.34819" height="10.3869" fill="white" transform="translate(213.354 147.711)"></rect>
</clipPath>
<clipPath id="clip3_742_14264">
<rect width="9.34819" height="10.3869" fill="white" transform="translate(79.5547 147.711)"></rect>
</clipPath>
<clipPath id="clip4_742_14264">
<rect width="9.34819" height="10.3869" fill="white" transform="translate(476.854 107.403)"></rect>
</clipPath>
<clipPath id="clip5_742_14264">
<rect width="9.86753" height="8.82884" fill="white" transform="translate(476.594 157.26)"></rect>
</clipPath>
<clipPath id="clip6_742_14264">
<rect width="8.3095" height="9.60786" fill="white" transform="translate(477.372 206.597)"></rect>
</clipPath>
<clipPath id="clip7_742_14264">
<rect width="10.3869" height="10.3869" fill="white" transform="translate(476.334 255.416)"></rect>
</clipPath>
</defs>
</svg>